<svg width="428" height="429" viewBox="0 0 428 429" fill="none" xmlns="http://www.w3.org/2000/svg">
<path fill-rule="evenodd" clip-rule="evenodd" d="M41.184 1.11799C27.59 3.37999 13.435 14.372 7.08098 27.602C5.25898 31.396 2.91098 38.663 1.86298 43.751C0.0289826 52.659 -0.0310172 58.917 0.254983 212.251C0.576983 385.663 0.161983 373.135 6.03798 387C15.451 409.213 35.021 423.934 59.162 426.961C70.549 428.389 357.451 428.389 368.838 426.961C384.849 424.954 396.764 418.998 408.701 407.038C414.314 401.413 417.106 397.595 420.035 391.538C428.083 374.891 427.5 387.277 427.5 233C427.5 102.437 427.407 95.2 425.665 89.552C419.914 70.918 408.023 58.233 392.189 53.843C385.982 52.122 380.131 52 303.522 51.994C251.571 51.991 220.172 51.62 217.876 50.982C215.037 50.194 209.984 45.543 194.533 29.496C176.854 11.137 174.061 8.64499 167.555 5.42999C162.806 3.08299 157.913 1.53599 153.399 0.953994C144.527 -0.189006 48.195 -0.0480059 41.184 1.11799ZM158.885 24.345C162.631 26.388 166.721 30.356 188.154 52.748C200.04 65.165 203.84 68.507 208.625 70.748L214.5 73.5L301.5 74L388.5 74.5L393.216 77.272C401.084 81.897 405.563 89.529 406.68 100.212C407.013 103.395 407.016 106 406.687 106C406.358 106 404.46 104.895 402.469 103.544C397.46 100.144 389.204 97.203 381.227 95.976C376.739 95.286 319.416 95.035 209 95.221L43.5 95.5L37 97.714C33.425 98.932 28.363 101.284 25.75 102.942L21 105.956V77.159C21 45.48 21.518 41.726 26.922 34.267C28.54 32.033 31.468 28.982 33.43 27.486C40.66 21.971 39.934 22.028 100 22.273C151.813 22.485 155.725 22.623 158.885 24.345ZM388.086 120.12C395.187 123.45 400.55 128.813 403.88 135.914L406.5 141.5V257.052V372.604L402.818 380.052C396.656 392.516 387.058 400.589 374.144 404.17C367.88 405.907 359.757 406 214.821 406C105.478 406 60.593 405.68 56.799 404.875C41.13 401.548 28.298 389.906 23.078 374.282C21.024 368.133 21 366.797 21 256.213C21 131.455 20.614 138.463 28.001 129.118C32.533 123.385 38.841 119.319 45.147 118.066C47.541 117.591 124.425 117.269 216 117.351L382.5 117.5L388.086 120.12ZM88.44 147.924C78.335 150.386 68.19 159.371 63.936 169.627L61.5 175.5L61.196 257.5C60.981 315.533 61.222 341.22 62.023 345.385C64.436 357.94 71.166 367.137 82 372.684C87.333 375.414 87.972 375.5 103 375.5C117.708 375.5 118.791 375.364 124.196 372.83C135.153 367.694 142.482 357.664 144.922 344.464C145.515 341.257 146.007 331.178 146.015 322.066C146.024 312.955 146.456 304.825 146.976 304C147.743 302.784 151.484 302.405 166.711 302C185.225 301.507 185.578 301.457 190.833 298.546C197.169 295.036 200.41 291.431 203.91 284C206.397 278.719 206.5 277.785 206.5 260.5C206.5 242.808 206.452 242.402 203.699 236.796C202.158 233.659 199.571 229.975 197.949 228.61C194.628 225.816 194.308 225 196.533 225C198.964 225 207.275 220.439 209.823 217.707L212.146 215.216L216.565 219.511C223.144 225.905 227.732 227.182 246.676 227.893L262.852 228.5L260.094 232.5C258.577 234.7 254.321 240.775 250.636 246C243.155 256.608 224.567 283.189 212.733 300.202C203.03 314.153 201 320.067 201 334.395C201 340.359 201.642 347.05 202.549 350.54C205.59 362.243 213.524 370.583 224.903 374.039C231.376 376.005 233.666 376.068 288.559 375.789L345.5 375.5L351.8 372.591C359.539 369.017 366.012 362.148 369.129 354.202C372.171 346.445 372.486 325.326 369.68 317.28C367.544 311.157 360.385 302.747 354.945 299.972C349.207 297.044 338.632 295.821 322.148 296.178L307.237 296.5L311.368 290.81C313.641 287.68 318.174 281.38 321.443 276.81C324.712 272.239 333.707 259.725 341.432 249C365.716 215.284 370 206.236 370 188.658C370 169.226 363.837 157.412 350 150.319L344.5 147.5H286.5H228.5L223.5 150.432C220.75 152.045 217.28 154.58 215.79 156.066L213.08 158.766L209.195 155.071C200.872 147.153 203.938 147.519 144.5 147.34C115.35 147.251 90.123 147.515 88.44 147.924ZM197.627 166.73C203.032 170.586 204.5 175.021 204.5 187.5C204.5 200.026 203.189 203.751 197.733 206.733C194.94 208.259 190.8 208.568 167.32 209C141.731 209.471 139.975 209.622 137.32 211.592C130.787 216.438 127.628 225.478 129.863 232.937C132.118 240.465 132.114 240.464 160.554 240.798L185.903 241.096L188.451 244.125C190.893 247.026 190.999 247.687 190.978 259.827C190.953 274.514 189.385 279.576 183.808 282.976C180.783 284.82 178.79 284.993 160.5 284.998C129.588 285.006 130.004 284.561 130.002 317.591C130 341.169 129.299 345.963 124.962 352.054C121.259 357.253 115.646 359.106 103.537 359.125C95.342 359.138 92.162 358.723 88.695 357.189C83.346 354.823 79.467 349.996 78.081 343.98C77.419 341.108 77.04 311.253 77.024 260.788C77.001 184.358 77.058 181.919 79.01 176.702C80.116 173.747 82.098 170.317 83.415 169.079C88.682 164.131 89.892 164.036 144 164.276C194.465 164.5 194.502 164.502 197.627 166.73ZM342.168 165.03C346.777 166.31 351.562 171.667 353.071 177.237C353.752 179.751 354.046 185.612 353.787 191.522C353.384 200.727 353.047 202.114 349.655 208.522C347.624 212.36 343.019 219.55 339.423 224.5C335.826 229.45 329.155 238.675 324.598 245C320.041 251.325 313.526 260.325 310.12 265C292.386 289.34 284.954 299.95 284.187 302.022C282.968 305.32 283.834 308.496 286.684 311.171C289.153 313.489 289.301 313.501 316.998 313.608C342.535 313.708 345.105 313.876 348.165 315.642C353.484 318.714 354.997 322.91 354.998 334.601C355.001 349.207 353.144 353.609 345.5 357.119C341.777 358.829 337.762 358.957 287.5 358.972C253.37 358.983 232.132 358.609 229.781 357.956C220.316 355.327 216.539 348.082 217.166 333.754C217.624 323.276 219.118 319.444 226.428 310C231.25 303.77 232.408 302.126 252.654 272.777C260.726 261.075 272.027 245.068 277.765 237.206C286.522 225.211 288.2 222.322 288.2 219.241C288.2 215.104 284.537 211.05 280.694 210.933C279.487 210.896 268.131 210.783 255.458 210.683C229.914 210.48 228.816 210.228 225.271 203.741C223.821 201.087 223.5 198.023 223.5 186.823C223.5 174.566 223.715 172.854 225.571 170.323C230.295 163.884 229.148 164.003 286.5 164.007C318.724 164.01 339.895 164.399 342.168 165.03Z" fill="#1f2937"/>
</svg>