<svg xmlns="http://www.w3.org/2000/svg" width="543" height="605" fill="none" viewBox="0 0 543 605"><g clip-path="url(#clip0_18_63)"><g filter="url(#filter0_d_18_63)"><path fill="#260B1A" d="M92.3279 603.49C80.6619 600.429 70.3839 591.825 65.2989 580.861C64.1739 578.434 62.4739 570.806 57.3679 545.272C53.7929 527.397 49.8339 506.922 48.5689 499.772C47.3039 492.622 43.8999 473.947 41.0039 458.272C38.1089 442.597 34.1969 421.334 32.3109 411.022C30.4249 400.71 27.3079 383.834 25.3829 373.522C21.3719 352.02 20.2389 345.796 17.0519 327.772C15.7879 320.622 13.4359 307.572 11.8259 298.772C9.19789 284.41 3.00591 250.032 1.79091 243.055C0.699906 236.786 1.78089 230.04 4.85389 223.95C6.77189 220.148 12.3939 214.38 16.1059 212.405C21.7039 209.426 19.6639 209.522 77.4559 209.522H130.384L135.726 204.822C138.664 202.236 141.736 199.562 142.552 198.878C143.708 197.911 143.911 197.486 143.472 196.954C142.172 195.377 137.268 184.838 135.585 180C134.584 177.124 133.575 174.58 133.342 174.347C133.109 174.114 130.743 175.407 128.085 177.222C125.427 179.037 122.93 180.522 122.535 180.522C121.37 180.522 119.818 178.625 119.818 177.202C119.818 175.491 121.81 173.722 127.568 170.325C131.03 168.282 132.031 167.451 131.908 166.721C131.82 166.199 131.624 161.822 131.474 156.993C131.148 146.581 131.678 141.825 134.108 133.382C135.399 128.899 135.978 125.644 136.35 120.803C137.008 112.196 137.912 107.452 139.781 102.785C140.626 100.674 141.318 98.854 141.318 98.74C141.318 98.626 139.462 97.604 137.193 96.467C129.992 92.86 122.885 84.674 120.314 77.022C118.636 72.03 118.018 65.9 118.688 60.894C119.849 52.216 122.75 46.5 129.282 40.018C136.596 32.757 144.087 29.642 155.38 29.162C162.51 28.859 166.758 29.55 173.405 32.096L177.242 33.566L183.155 29.758C193.691 22.973 208.235 16.358 223.683 11.326C261.324 -0.936026 306.554 -2.23902 346.396 7.79198C355.326 10.04 363.538 12.544 370.192 15.047C378.116 18.028 392.67 25.342 399.898 29.976L406.228 34.033L410.648 32.562C438.164 23.403 466.19 42.681 464.694 69.736C464.234 78.048 460.845 85.107 454.112 91.778C451.878 93.992 448.664 96.566 446.93 97.528C441.574 100.506 441.948 99.498 443.467 106.832C445.123 114.828 445.818 120.496 445.818 125.999C445.818 130.041 445.93 130.476 448.073 134.762C449.314 137.242 450.68 140.847 451.108 142.772C452.102 147.232 452.616 162.903 451.87 166.022C451.255 168.596 450.79 168.047 457.066 172.155C461.916 175.33 462.734 176.832 460.716 178.851C459.064 180.504 458.014 180.272 453.522 177.259C451.664 176.014 449.994 175.17 449.808 175.384C449.624 175.597 448.744 177.91 447.856 180.522C446.966 183.134 444.674 188.524 442.762 192.499L439.285 199.726L446.209 206.749C455.27 215.94 456.818 217.766 456.818 219.262C456.818 220.982 454.695 222.354 453.133 221.642C452.504 221.356 448.518 217.5 444.278 213.074C440.038 208.648 436.327 205.025 436.032 205.024C435.738 205.023 433.636 207.103 431.362 209.647L427.228 214.272L427.528 218.421C427.995 224.892 433.208 239.566 440.804 255.79L443.214 260.938L457.141 261.138C472.339 261.356 473.224 261.504 479.374 264.85C482.586 266.598 487.318 271.649 489.038 275.164C490.342 277.83 491.812 284.93 491.816 288.579L491.818 290.386L496.443 290.628C502.176 290.93 504.553 292.009 506.734 295.302C508.974 298.684 509.138 300.914 507.7 308.51C507.024 312.084 506.586 315.124 506.728 315.265C506.869 315.407 509.254 315.525 512.026 315.53C518.268 315.541 522.958 316.503 527.657 318.734C535.516 322.466 541.336 331.321 542.144 340.772C542.574 345.8 541.332 352.83 537.028 369.736C527.44 407.409 515.73 453.8 510.832 473.522C507.86 485.484 504.066 500.334 502.401 506.522C500.736 512.71 496.439 529.412 492.854 543.638C485.776 571.719 485.194 573.719 482.287 579.944C476.8 591.694 468.3 598.856 454.818 603.092L451.068 604.27L273.568 604.37C98.6419 604.47 96.0139 604.457 92.3279 603.49ZM452.252 590.088C456.195 588.621 461.407 585.648 464.148 583.302C467.794 580.18 470.313 575.422 472.502 567.522C473.608 563.528 492.33 489.576 496.11 474.272C497.875 467.122 499.516 460.484 499.756 459.522C499.996 458.56 502.346 449.56 504.976 439.522C507.606 429.484 513.95 404.51 519.073 384.022C527.556 350.098 528.372 346.46 528.208 343.272C527.988 339.018 526.888 336.566 523.815 333.48C519.492 329.14 522.394 329.388 473.228 329.142L429.887 328.926L427.866 331.599C426.755 333.069 424.104 336.634 421.975 339.522C417.473 345.628 409.486 353.807 404.79 357.122C394.4 364.454 385.19 367.404 374.24 366.91C363.47 366.423 354.6 362.314 346.852 354.221C341.814 348.958 339.037 344.095 336.032 335.272C335.002 332.247 333.942 329.491 333.678 329.147C332.918 328.162 317.678 328.29 314.696 329.306C311.756 330.308 309.4 332.92 304.132 341.022C301.255 345.446 299.434 347.71 297.9 348.772L295.732 350.272L255.15 350.41L214.568 350.549L211.068 353.983C202.175 362.709 192.402 367.022 181.52 367.022C169.078 367.022 158.208 362.558 147.236 352.942L143.903 350.022L137.236 350.031C127.577 350.044 122.452 350.684 119.328 352.267C115.7 354.105 112.621 357.104 111.367 360.02C109.82 363.616 109.69 364.374 102.081 414.522C98.1389 440.501 92.1559 478.544 90.0109 491.272C89.3159 495.397 88.2929 501.584 87.7379 505.022C87.1829 508.46 84.6119 524.13 82.0239 539.846C79.4359 555.562 77.3179 569.64 77.3179 571.132C77.3179 576.796 80.5119 582.236 86.2779 586.392C91.2059 589.943 93.5099 590.585 102.818 591.004C107.08 591.196 186.73 591.336 279.818 591.313L449.068 591.272L452.252 590.088ZM73.7459 541.022C76.4199 527.836 76.8789 521.712 75.5959 516.272C74.9499 513.532 73.3019 502.972 69.2779 475.772C68.4649 470.272 67.3579 463.184 66.8179 460.022C64.3279 445.436 53.7819 381.179 53.0719 376.272C52.6339 373.247 51.7139 367.284 51.0269 363.022C50.3399 358.76 49.4439 353.134 49.0349 350.522C48.0809 344.424 45.2449 327.926 43.0619 315.772C40.1899 299.78 40.2449 297.766 43.6499 293.996C46.8179 290.492 46.4819 290.522 81.5339 290.521L112.568 290.52L115.768 285.693C120.022 279.276 126.534 271.782 132.611 266.306C140.176 259.492 144.318 255.366 144.318 254.65C144.318 254.292 142.422 250.546 140.105 246.325C137.788 242.104 134.866 236.608 133.614 234.113C130.87 228.652 128.818 226.202 125.818 224.814C123.593 223.784 123.016 223.77 74.0679 223.624C46.8429 223.542 23.8229 223.612 22.9129 223.777C21.0929 224.108 17.6349 226.958 16.5819 228.994C15.7379 230.627 14.9819 239.522 15.6879 239.522C15.9779 239.522 16.1619 240.994 16.1269 243.04C16.0939 244.975 16.2929 246.718 16.5679 246.915C16.8429 247.112 17.0859 248.16 17.1099 249.244C17.1319 250.328 17.4139 251.304 17.7339 251.411C18.0649 251.521 18.3179 252.592 18.3179 253.881C18.3179 256.893 19.3729 262.522 19.9379 262.522C20.1839 262.522 20.2519 262.944 20.0879 263.458C19.9239 263.974 20.1239 266.28 20.5319 268.584C21.6859 275.11 21.9119 276.022 22.3779 276.022C22.6179 276.022 22.7939 277.203 22.7699 278.647C22.7249 281.312 25.1919 296.064 25.7579 296.522C25.9279 296.66 26.1029 297.758 26.1469 298.964C26.1899 300.17 26.4159 301.294 26.6469 301.464C26.8779 301.634 27.0989 303.114 27.1359 304.753C27.1739 306.392 27.4459 307.815 27.7419 307.914C28.6739 312.884 30.1509 320.326 30.6559 324.022C30.9019 324.022 31.1159 325.204 31.1309 326.647C31.1659 329.988 33.3079 341.022 34.3029 343.512C34.6359 343.718 34.9689 345.386 35.0639 347.325C35.1569 349.221 35.6839 353.247 36.2359 356.272C36.7879 359.297 37.9369 365.71 38.7899 370.522C42.2439 390.028 44.4579 401.288 44.8929 401.562C45.1459 401.722 45.2219 402.191 45.0629 402.605C44.9039 403.019 45.5729 407.614 46.5499 412.815C47.5259 418.016 49.9059 430.934 51.8369 441.522C53.7679 452.11 56.4589 466.734 57.8159 474.022C59.1729 481.31 61.4339 493.684 62.8399 501.522C65.3659 515.606 71.1139 545.108 71.5999 546.48C72.0739 547.82 72.6779 546.284 73.7459 541.022ZM84.2439 478.772C84.5259 476.847 86.1219 466.384 87.7919 455.522C89.4619 444.66 91.7439 429.697 92.8659 422.272C93.9859 414.847 95.8859 402.472 97.0859 394.772C98.2859 387.072 99.8439 376.58 100.549 371.457C101.254 366.334 102.142 361.105 102.524 359.837C103.598 356.266 105.631 353.191 109.51 349.268C112.278 346.468 113.723 345.426 116.017 344.574C120.102 343.06 125.654 342.406 132.774 342.604C136.099 342.696 138.819 342.753 138.818 342.73C138.818 342.708 137.336 340.472 135.524 337.763C133.712 335.054 130.112 328.604 127.522 323.429L122.813 314.022H101.094H79.3739L78.5959 315.134C77.6449 316.492 77.5919 322.879 78.3239 348.022C78.5999 357.51 79.1659 376.972 79.5809 391.272C80.3659 418.322 81.4779 447.637 82.3219 463.522C82.5919 468.61 82.8139 474.816 82.8159 477.314C82.8179 481.186 83.0879 482.922 83.6079 482.397C83.6759 482.328 83.9629 480.697 84.2439 478.772ZM73.3619 432.522C73.0619 423.584 72.5919 408.96 72.3159 400.022C72.0399 391.084 71.5969 378.034 71.3309 371.022C71.0649 364.01 70.6959 348.891 70.5099 337.426C70.1349 314.31 70.2129 313.493 73.1159 310.102C76.1879 306.514 77.1069 306.34 94.1479 306.125L109.229 305.935L110.028 302.399C110.466 300.454 110.764 298.801 110.687 298.724C110.61 298.648 96.6489 298.514 79.6609 298.428C49.1239 298.274 48.7719 298.284 48.5279 299.272C48.2959 300.216 50.8319 316.798 53.5739 332.272C54.6259 338.204 57.1359 353.68 60.0619 372.272C60.4519 374.747 61.3379 380.147 62.0309 384.272C62.7239 388.397 64.3099 397.96 65.5539 405.522C66.7979 413.084 69.0539 426.237 70.5679 434.75C72.0799 443.263 73.3559 450.8 73.4019 451.5C73.4479 452.2 73.5799 451.872 73.6959 450.772C73.8119 449.672 73.6599 441.46 73.3619 432.522ZM187.708 353.767C193.474 352.408 196.551 350.111 197.84 346.204C198.583 343.954 198.18 338.18 196.832 331.772C195.883 327.26 192.415 316.627 191 313.892C190.054 312.06 190.424 311.022 192.024 311.022C195.336 311.022 200.278 319.236 205.051 332.669C205.836 334.879 206.681 336.486 207.002 336.381C207.769 336.13 209.688 330.71 210.847 325.522C212 320.36 212.14 308.267 211.112 302.507C208.307 286.79 195.631 273.222 179.736 268.924C176.362 268.012 174.378 267.81 169.318 267.86C155.666 267.998 146.954 271.537 137.259 280.884C132.242 285.72 129.634 288.992 125.603 295.51C122.066 301.226 122.009 301.624 124.655 302.09C129.932 303.018 132.38 305.812 138.34 317.705C143.912 328.824 148.138 335.262 153.245 340.418C158.799 346.024 165.286 350.254 166.487 349.053C167.406 348.134 166.964 336.168 165.752 329.088C164.356 320.938 164.324 319.846 165.468 319.618C169.134 318.889 173.424 329.016 174.792 341.628C175.081 344.298 175.318 348.142 175.318 350.169C175.318 352.196 175.468 354.005 175.652 354.188C176.267 354.804 184.536 354.515 187.708 353.767ZM383.026 353.719C383.696 353.462 383.818 352.35 383.818 346.534C383.818 338.757 384.603 333.466 386.792 326.497C388.406 321.355 389.899 319.318 391.843 319.606C393.746 319.887 394.101 321.088 393.4 324.871C391.6 334.586 391.234 337.974 391.476 342.686C391.614 345.388 391.872 347.744 392.05 347.92C392.587 348.458 396.544 346.088 399.48 343.471C402.622 340.671 407.944 334.2 413.635 326.26C415.766 323.287 418.868 319.402 420.528 317.626L423.548 314.399L430.13 314.748C434.518 314.98 436.82 314.924 437.034 314.576C437.472 313.868 436.113 309.36 433.505 302.868C426.29 284.906 415.988 274.023 401.923 269.504C397.068 267.944 390.688 267.104 389.696 267.895C388.88 268.546 385.818 268.973 385.818 268.436C385.818 266.949 376.391 269.172 370.774 271.984C358.484 278.136 350.352 289.252 347.292 304.085C345.34 313.552 346.478 325.481 350.092 333.441C350.758 334.909 351.566 336.022 351.889 335.915C352.212 335.808 353.198 333.256 354.081 330.246C356.356 322.492 359.188 315.504 360.706 313.897C362.792 311.689 366.318 312.184 366.318 314.685C366.318 315.214 365.536 317.6 364.582 319.988C361.822 326.886 360.644 332.454 360.606 338.772C360.57 344.928 361.148 347.224 363.368 349.752C364.893 351.489 368.53 353.295 371.99 354.034C374.104 354.484 381.586 354.272 383.026 353.719ZM291.428 341.897C292.351 341.176 296.583 334.736 299.179 330.102C301.77 325.475 305.822 321.326 309.488 319.541C314.02 317.338 317.344 316.654 325.5 316.25L332.818 315.887L332.827 313.58C332.836 311.261 334.009 302.177 334.606 299.797L334.926 298.522H279.683H224.44L225.208 301.897C226.206 306.284 226.312 320.548 225.378 324.772C224.391 329.232 221.862 336.948 220.508 339.63C219.854 340.928 219.318 342.109 219.318 342.256C219.318 342.402 235.362 342.522 254.972 342.522C282.735 342.522 290.804 342.384 291.428 341.897ZM498.925 312.522C499.552 310.712 499.91 308.178 499.972 305.108C500.12 297.91 502.65 298.522 472.753 298.522H447.799L448.058 299.647C448.202 300.266 448.766 302.684 449.314 305.022C449.862 307.36 450.456 310.68 450.634 312.402L450.957 315.532L474.465 315.402L497.972 315.272L498.925 312.522ZM339.444 285.397C340.938 282.303 342.982 278.701 343.988 277.392C344.994 276.084 345.818 274.902 345.818 274.768C345.818 274.632 315.836 274.548 279.193 274.58C242.55 274.612 212.962 274.74 213.443 274.866C214.428 275.124 214.552 275.588 213.826 276.314C213.502 276.638 213.962 277.742 215.166 279.53C216.174 281.027 218.038 284.056 219.309 286.262L221.619 290.272L229.594 290.542C233.98 290.69 259.879 290.858 287.148 290.916L336.729 291.022L339.444 285.397ZM477.034 286.522C476.982 280.694 474.712 277.446 469.415 275.624C467.142 274.842 449.57 274.209 449.147 274.894C448.97 275.18 449.41 276.732 450.126 278.343C450.84 279.954 452.088 283.063 452.898 285.252C453.708 287.442 454.615 289.528 454.914 289.887C455.336 290.397 457.84 290.512 466.262 290.406L477.068 290.272L477.034 286.522ZM435.59 273.566C434.374 271.144 432.158 267.048 430.668 264.466C425.194 254.985 421.432 246.232 416.83 232.272C415.38 227.872 414.014 224.076 413.796 223.836C413.576 223.597 411.703 224.458 409.632 225.748C405.565 228.284 394.988 233.038 389.969 234.589C388.26 235.117 386.725 235.768 386.56 236.036C386.394 236.303 385.518 236.522 384.614 236.522C383.71 236.522 380.426 237.084 377.318 237.772C370.745 239.226 367.874 239.41 368.778 238.32C369.099 237.933 372.22 236.338 375.715 234.775C396.308 225.564 408.482 216.718 420.88 201.958C424.58 197.552 425.753 195.614 425.02 195.114C424.744 194.926 422.392 193.288 419.793 191.473C411.952 185.998 402.505 180.532 394.318 176.733C385.252 172.526 377.986 169.846 377.552 170.549C377.386 170.816 376.808 172.634 376.266 174.588C375.724 176.542 374.456 179.948 373.445 182.158L371.608 186.176L372.822 186.974C379.417 191.306 390.773 202.926 391.588 206.176C392.054 208.029 390.708 209.522 388.574 209.522C387.304 209.522 386.644 209.095 385.287 207.397C382.808 204.296 375.586 196.866 371.692 193.412L368.316 190.416L365.307 193.202C361.314 196.899 358.592 198.724 353.546 201.088C347.432 203.954 342.671 205.057 335.016 205.381C325.595 205.78 318.474 204.514 311.675 201.233L309.782 200.32L304.925 202.876C298.062 206.488 294.34 207.522 288.212 207.522C281.081 207.522 274.74 205.583 269.568 201.82C267.833 200.558 267.706 200.554 265.142 201.673C252.962 206.988 232.904 206.642 221.604 200.92C218.82 199.511 212.738 195.282 211.312 193.766C210.494 192.894 209.608 192.52 208.356 192.516C206.695 192.51 205.936 193.155 197.659 201.6C189.22 210.212 188.68 210.666 187.418 210.222C186.67 209.959 185.88 209.17 185.616 208.42C185.208 207.256 185.43 206.718 187.358 204.214C190.415 200.242 199.112 191.233 202.486 188.542C204.908 186.61 205.192 186.208 204.608 185.542C203.412 184.175 201.684 180.376 200.278 176.022C199.201 172.689 198.684 171.738 197.883 171.615C195.746 171.287 179.521 179.182 170.568 184.905C160.835 191.127 157.293 193.735 157.576 194.472C158.468 196.796 164.37 204.082 169.818 209.584C179.368 219.228 188.207 225.351 205.568 234.351C214.168 238.809 214.211 239.006 206.318 237.776C196.658 236.272 189.399 233.742 177.334 227.678C173.354 225.678 169.96 224.206 169.79 224.406C169.619 224.608 168.971 227.219 168.349 230.21C166.072 241.157 162.322 250.667 159.272 253.234C157.209 254.97 157.859 255.612 160.998 254.939C162.38 254.642 166.688 254.514 170.998 254.642C177.932 254.848 179.088 255.023 184.77 256.724C188.182 257.746 191.83 259.018 192.876 259.552C194.736 260.5 196.613 260.522 278.535 260.522H362.292L366.124 259C376.168 255.01 386.928 253.326 395.087 254.468C409.839 256.531 421.054 262.196 431.818 273.024C434.706 275.928 437.234 278.23 437.436 278.138C437.638 278.047 436.808 275.99 435.59 273.566ZM153.296 236.328C154.36 233.53 156.318 222.163 156.318 218.783V215.11L151.54 209.566C148.912 206.517 146.514 204.022 146.212 204.022C144.961 204.022 135.818 212.12 135.818 213.226C135.818 213.526 136.947 214.744 138.326 215.932C141.518 218.68 144.882 223.671 148.763 231.412C150.448 234.772 152.054 237.522 152.334 237.522C152.614 237.522 153.047 236.985 153.296 236.328ZM255.24 192.722C266.589 189.47 276.204 182.616 281.075 174.305C282.038 172.662 282.51 170.87 282.912 167.342C283.208 164.728 283.328 162.27 283.178 161.88C283.024 161.476 281.545 160.902 279.76 160.55C278.031 160.21 275.207 159.42 273.486 158.796C263.922 155.324 253.432 145.558 249.254 136.234C248.412 134.357 248.14 132.762 248.109 129.522C248.071 125.585 248.195 125.038 249.795 122.086C252.29 117.484 256.17 114.734 264.318 111.79C270.596 109.522 276.795 108.494 286.086 108.18C303.692 107.584 315.588 110.598 323.002 117.534C330.335 124.394 331.048 131.098 325.378 139.867C319.987 148.203 308.468 157.18 298.919 160.487C293.348 162.416 293.647 162.04 293.94 166.744C294.27 172.021 295.951 175.671 300.032 179.97C305.358 185.581 313.338 190.144 322.568 192.858C324.788 193.51 327.388 193.744 332.568 193.756C338.978 193.77 339.901 193.654 343.518 192.376C345.69 191.608 348.952 190.111 350.768 189.05C354.641 186.786 358.947 183.134 358.532 182.464C358.186 181.902 351.722 178.65 347.684 177.006C344.157 175.568 342.873 174.328 343.66 173.118C344.501 171.822 346.058 172.184 353.842 175.48C357.793 177.154 361.2 178.522 361.415 178.522C362.546 178.522 366.318 170.25 366.318 167.767C366.318 166.45 366.396 166.482 356.976 164.006C352.238 162.761 351.012 162.042 351.49 160.796C351.863 159.824 354.048 159.932 362.227 161.329C364.514 161.72 366.626 161.89 366.92 161.708C367.544 161.322 367.137 154.819 366.305 151.897L365.771 150.022H356.856C349.791 150.022 347.819 149.876 347.355 149.316C347.033 148.928 346.952 148.498 347.176 148.36C347.897 147.914 353.431 147.056 358.742 146.566C361.588 146.304 364.026 145.981 364.159 145.848C365.045 144.962 359.47 135.958 354.387 130.067C352.424 127.792 350.818 125.708 350.818 125.436C350.818 124.903 352.554 125.874 358.06 129.483C362.506 132.398 370.225 140.056 371.832 143.147C372.8 145.01 373.336 145.524 374.317 145.532C378.694 145.57 390.478 146.586 394.636 147.284C406.634 149.3 418.446 152.848 430.514 158.062C434.884 159.95 438.686 161.354 438.963 161.182C439.66 160.752 439.018 146.266 438.098 141.673C437.702 139.694 436.83 136.318 436.162 134.173C434.899 130.12 434.635 128.546 432.563 112.771C431.876 107.546 430.753 100.95 430.066 98.114C429.38 95.278 428.818 92.786 428.818 92.576C428.818 92.365 430.674 91.8 432.943 91.32C438.254 90.197 441.684 88.628 444.503 86.028C449.544 81.382 452.291 74.945 452.308 67.738C452.325 60.316 450.168 54.792 445.385 50.009C436.967 41.591 422.416 40.243 408.374 46.58C406.617 47.374 404.888 48.022 404.531 48.022C404.174 48.022 402.012 46.682 399.725 45.044C394.944 41.618 390.308 38.837 382.699 34.828C377.128 31.892 367.773 28.022 366.25 28.022C364.191 27.367 361.739 25.802 361.614 26.084C360.719 25.382 350.404 22.1 345.05 20.814C318.068 14.337 285.257 12.716 258.889 16.557C231.322 20.573 205.472 30.168 183.147 44.67L177.726 48.191L173.147 45.908C167.514 43.1 164.294 42.122 159.372 41.73C151.674 41.117 143.762 43.968 138.561 49.23C130.358 57.528 128.93 71.078 135.23 80.825C138.4 85.728 142.171 88.5 149.832 91.558C152.024 92.433 153.818 93.428 153.818 93.768C153.818 94.11 153.266 97.32 152.59 100.904C151.264 107.938 150.548 114.326 150.026 123.772C149.774 128.308 149.416 130.444 148.558 132.522C145.622 139.636 145.184 141.86 144.938 150.897C144.806 155.792 144.898 159.522 145.15 159.522C145.396 159.522 147.84 158.536 150.582 157.33C164.624 151.156 186.878 146.022 199.598 146.022H203.828L205.198 143.996C207.66 140.358 210.799 136.835 214.417 133.651C218.418 130.13 224.674 125.711 225.08 126.118C225.228 126.265 223.9 128.179 222.129 130.372C217.04 136.676 212.275 144.718 213.154 145.522C213.382 145.73 216.156 146.172 219.318 146.502C226.066 147.209 228.728 147.732 229.499 148.504C230.658 149.662 228.435 150.007 219.77 150.014L210.972 150.022L210.145 153.786C209.69 155.856 209.318 158.588 209.318 159.856V162.162L211.693 161.851C212.999 161.68 215.53 161.316 217.318 161.041C223.561 160.082 227.989 160.593 225.409 161.974C224.894 162.25 221.358 163.382 217.552 164.49C213.747 165.599 210.417 166.723 210.152 166.988C209.548 167.592 211.906 174.51 213.616 177.147C214.285 178.178 215.172 179.022 215.586 179.022C216 179.022 218.148 178.113 220.356 177.002C222.566 175.892 226.293 174.288 228.64 173.44C232.545 172.026 232.974 171.963 233.704 172.693C234.434 173.423 234.42 173.58 233.548 174.544C233.023 175.124 231.126 176.398 229.331 177.374C220.944 181.94 218.818 183.246 218.818 183.836C218.818 184.652 224.184 188.462 228.094 190.42C236.458 194.611 245.864 195.408 255.24 192.722ZM431.066 186.397C433.205 181.722 434.852 177.471 436.63 172.028C438.148 167.384 438.928 168.127 426.818 162.67C422.142 160.562 411.304 156.681 406.318 155.328C395.319 152.344 377.468 149.644 376.362 150.798C376.088 151.083 376.181 152.666 376.594 154.772C376.972 156.697 377.29 159.683 377.3 161.408C377.32 164.979 376.778 164.531 383.818 166.793C396.107 170.742 412.524 179.115 424.318 187.45C426.656 189.102 428.706 190.468 428.874 190.488C429.042 190.506 430.028 188.666 431.066 186.397ZM159.962 185.336C170.559 177.792 184.301 170.426 194.125 167.023L198.682 165.444L198.994 162.108C199.166 160.273 199.77 157.106 200.336 155.07C200.953 152.847 201.182 151.186 200.91 150.914C200.361 150.365 189.612 151.664 182.818 153.1C172.15 155.356 161 159.095 151.16 163.718L145.386 166.432L146.067 169.352C147.479 175.4 153.157 189.022 154.267 189.022C154.552 189.022 157.114 187.363 159.962 185.336Z"/><path stroke="#260B1A" d="M92.3279 603.49C80.6619 600.429 70.3839 591.825 65.2989 580.861C64.1739 578.434 62.4739 570.806 57.3679 545.272C53.7929 527.397 49.8339 506.922 48.5689 499.772C47.3039 492.622 43.8999 473.947 41.0039 458.272C38.1089 442.597 34.1969 421.334 32.3109 411.022C30.4249 400.71 27.3079 383.834 25.3829 373.522C21.3719 352.02 20.2389 345.796 17.0519 327.772C15.7879 320.622 13.4359 307.572 11.8259 298.772C9.19789 284.41 3.00591 250.032 1.79091 243.055C0.699906 236.786 1.78089 230.04 4.85389 223.95C6.77189 220.148 12.3939 214.38 16.1059 212.405C21.7039 209.426 19.6639 209.522 77.4559 209.522H130.384L135.726 204.822C138.664 202.236 141.736 199.562 142.552 198.878C143.708 197.911 143.911 197.486 143.472 196.954C142.172 195.377 137.268 184.838 135.585 180C134.584 177.124 133.575 174.58 133.342 174.347C133.109 174.114 130.743 175.407 128.085 177.222C125.427 179.037 122.93 180.522 122.535 180.522C121.37 180.522 119.818 178.625 119.818 177.202C119.818 175.491 121.81 173.722 127.568 170.325C131.03 168.282 132.031 167.451 131.908 166.721C131.82 166.199 131.624 161.822 131.474 156.993C131.148 146.581 131.678 141.825 134.108 133.382C135.399 128.899 135.978 125.644 136.35 120.803C137.008 112.196 137.912 107.452 139.781 102.785C140.626 100.674 141.318 98.854 141.318 98.74C141.318 98.626 139.462 97.604 137.193 96.467C129.992 92.86 122.885 84.674 120.314 77.022C118.636 72.03 118.018 65.9 118.688 60.894C119.849 52.216 122.75 46.5 129.282 40.018C136.596 32.757 144.087 29.642 155.38 29.162C162.51 28.859 166.758 29.55 173.405 32.096L177.242 33.566L183.155 29.758C193.691 22.973 208.235 16.358 223.683 11.326C261.324 -0.936026 306.554 -2.23902 346.396 7.79198C355.326 10.04 363.538 12.544 370.192 15.047C378.116 18.028 392.67 25.342 399.898 29.976L406.228 34.033L410.648 32.562C438.164 23.403 466.19 42.681 464.694 69.736C464.234 78.048 460.845 85.107 454.112 91.778C451.878 93.992 448.664 96.566 446.93 97.528C441.574 100.506 441.948 99.498 443.467 106.832C445.123 114.828 445.818 120.496 445.818 125.999C445.818 130.041 445.93 130.476 448.073 134.762C449.314 137.242 450.68 140.847 451.108 142.772C452.102 147.232 452.616 162.903 451.87 166.022C451.255 168.596 450.79 168.047 457.066 172.155C461.916 175.33 462.734 176.832 460.716 178.851C459.064 180.504 458.014 180.272 453.522 177.259C451.664 176.014 449.994 175.17 449.808 175.384C449.624 175.597 448.744 177.91 447.856 180.522C446.966 183.134 444.674 188.524 442.762 192.499L439.285 199.726L446.209 206.749C455.27 215.94 456.818 217.766 456.818 219.262C456.818 220.982 454.695 222.354 453.133 221.642C452.504 221.356 448.518 217.5 444.278 213.074C440.038 208.648 436.327 205.025 436.032 205.024C435.738 205.023 433.636 207.103 431.362 209.647L427.228 214.272L427.528 218.421C427.995 224.892 433.208 239.566 440.804 255.79L443.214 260.938L457.141 261.138C472.339 261.356 473.224 261.504 479.374 264.85C482.586 266.598 487.318 271.649 489.038 275.164C490.342 277.83 491.812 284.93 491.816 288.579L491.818 290.386L496.443 290.628C502.176 290.93 504.553 292.009 506.734 295.302C508.974 298.684 509.138 300.914 507.7 308.51C507.024 312.084 506.586 315.124 506.728 315.265C506.869 315.407 509.254 315.525 512.026 315.53C518.268 315.541 522.958 316.503 527.657 318.734C535.516 322.466 541.336 331.321 542.144 340.772C542.574 345.8 541.332 352.83 537.028 369.736C527.44 407.409 515.73 453.8 510.832 473.522C507.86 485.484 504.066 500.334 502.401 506.522C500.736 512.71 496.439 529.412 492.854 543.638C485.776 571.719 485.194 573.719 482.287 579.944C476.8 591.694 468.3 598.856 454.818 603.092L451.068 604.27L273.568 604.37C98.6419 604.47 96.0139 604.457 92.3279 603.49ZM452.252 590.088C456.195 588.621 461.407 585.648 464.148 583.302C467.794 580.18 470.313 575.422 472.502 567.522C473.608 563.528 492.33 489.576 496.11 474.272C497.875 467.122 499.516 460.484 499.756 459.522C499.996 458.56 502.346 449.56 504.976 439.522C507.606 429.484 513.95 404.51 519.073 384.022C527.556 350.098 528.372 346.46 528.208 343.272C527.988 339.018 526.888 336.566 523.815 333.48C519.492 329.14 522.394 329.388 473.228 329.142L429.887 328.926L427.866 331.599C426.755 333.069 424.104 336.634 421.975 339.522C417.473 345.628 409.486 353.807 404.79 357.122C394.4 364.454 385.19 367.404 374.24 366.91C363.47 366.423 354.6 362.314 346.852 354.221C341.814 348.958 339.037 344.095 336.032 335.272C335.002 332.247 333.942 329.491 333.678 329.147C332.918 328.162 317.678 328.29 314.696 329.306C311.756 330.308 309.4 332.92 304.132 341.022C301.255 345.446 299.434 347.71 297.9 348.772L295.732 350.272L255.15 350.41L214.568 350.549L211.068 353.983C202.175 362.709 192.402 367.022 181.52 367.022C169.078 367.022 158.208 362.558 147.236 352.942L143.903 350.022L137.236 350.031C127.577 350.044 122.452 350.684 119.328 352.267C115.7 354.105 112.621 357.104 111.367 360.02C109.82 363.616 109.69 364.374 102.081 414.522C98.1389 440.501 92.1559 478.544 90.0109 491.272C89.3159 495.397 88.2929 501.584 87.7379 505.022C87.1829 508.46 84.6119 524.13 82.0239 539.846C79.4359 555.562 77.3179 569.64 77.3179 571.132C77.3179 576.796 80.5119 582.236 86.2779 586.392C91.2059 589.943 93.5099 590.585 102.818 591.004C107.08 591.196 186.73 591.336 279.818 591.313L449.068 591.272L452.252 590.088ZM73.7459 541.022C76.4199 527.836 76.8789 521.712 75.5959 516.272C74.9499 513.532 73.3019 502.972 69.2779 475.772C68.4649 470.272 67.3579 463.184 66.8179 460.022C64.3279 445.436 53.7819 381.179 53.0719 376.272C52.6339 373.247 51.7139 367.284 51.0269 363.022C50.3399 358.76 49.4439 353.134 49.0349 350.522C48.0809 344.424 45.2449 327.926 43.0619 315.772C40.1899 299.78 40.2449 297.766 43.6499 293.996C46.8179 290.492 46.4819 290.522 81.5339 290.521L112.568 290.52L115.768 285.693C120.022 279.276 126.534 271.782 132.611 266.306C140.176 259.492 144.318 255.366 144.318 254.65C144.318 254.292 142.422 250.546 140.105 246.325C137.788 242.104 134.866 236.608 133.614 234.113C130.87 228.652 128.818 226.202 125.818 224.814C123.593 223.784 123.016 223.77 74.0679 223.624C46.8429 223.542 23.8229 223.612 22.9129 223.777C21.0929 224.108 17.6349 226.958 16.5819 228.994C15.7379 230.627 14.9819 239.522 15.6879 239.522C15.9779 239.522 16.1619 240.994 16.1269 243.04C16.0939 244.975 16.2929 246.718 16.5679 246.915C16.8429 247.112 17.0859 248.16 17.1099 249.244C17.1319 250.328 17.4139 251.304 17.7339 251.411C18.0649 251.521 18.3179 252.592 18.3179 253.881C18.3179 256.893 19.3729 262.522 19.9379 262.522C20.1839 262.522 20.2519 262.944 20.0879 263.458C19.9239 263.974 20.1239 266.28 20.5319 268.584C21.6859 275.11 21.9119 276.022 22.3779 276.022C22.6179 276.022 22.7939 277.203 22.7699 278.647C22.7249 281.312 25.1919 296.064 25.7579 296.522C25.9279 296.66 26.1029 297.758 26.1469 298.964C26.1899 300.17 26.4159 301.294 26.6469 301.464C26.8779 301.634 27.0989 303.114 27.1359 304.753C27.1739 306.392 27.4459 307.815 27.7419 307.914C28.6739 312.884 30.1509 320.326 30.6559 324.022C30.9019 324.022 31.1159 325.204 31.1309 326.647C31.1659 329.988 33.3079 341.022 34.3029 343.512C34.6359 343.718 34.9689 345.386 35.0639 347.325C35.1569 349.221 35.6839 353.247 36.2359 356.272C36.7879 359.297 37.9369 365.71 38.7899 370.522C42.2439 390.028 44.4579 401.288 44.8929 401.562C45.1459 401.722 45.2219 402.191 45.0629 402.605C44.9039 403.019 45.5729 407.614 46.5499 412.815C47.5259 418.016 49.9059 430.934 51.8369 441.522C53.7679 452.11 56.4589 466.734 57.8159 474.022C59.1729 481.31 61.4339 493.684 62.8399 501.522C65.3659 515.606 71.1139 545.108 71.5999 546.48C72.0739 547.82 72.6779 546.284 73.7459 541.022ZM84.2439 478.772C84.5259 476.847 86.1219 466.384 87.7919 455.522C89.4619 444.66 91.7439 429.697 92.8659 422.272C93.9859 414.847 95.8859 402.472 97.0859 394.772C98.2859 387.072 99.8439 376.58 100.549 371.457C101.254 366.334 102.142 361.105 102.524 359.837C103.598 356.266 105.631 353.191 109.51 349.268C112.278 346.468 113.723 345.426 116.017 344.574C120.102 343.06 125.654 342.406 132.774 342.604C136.099 342.696 138.819 342.753 138.818 342.73C138.818 342.708 137.336 340.472 135.524 337.763C133.712 335.054 130.112 328.604 127.522 323.429L122.813 314.022H101.094H79.3739L78.5959 315.134C77.6449 316.492 77.5919 322.879 78.3239 348.022C78.5999 357.51 79.1659 376.972 79.5809 391.272C80.3659 418.322 81.4779 447.637 82.3219 463.522C82.5919 468.61 82.8139 474.816 82.8159 477.314C82.8179 481.186 83.0879 482.922 83.6079 482.397C83.6759 482.328 83.9629 480.697 84.2439 478.772ZM73.3619 432.522C73.0619 423.584 72.5919 408.96 72.3159 400.022C72.0399 391.084 71.5969 378.034 71.3309 371.022C71.0649 364.01 70.6959 348.891 70.5099 337.426C70.1349 314.31 70.2129 313.493 73.1159 310.102C76.1879 306.514 77.1069 306.34 94.1479 306.125L109.229 305.935L110.028 302.399C110.466 300.454 110.764 298.801 110.687 298.724C110.61 298.648 96.6489 298.514 79.6609 298.428C49.1239 298.274 48.7719 298.284 48.5279 299.272C48.2959 300.216 50.8319 316.798 53.5739 332.272C54.6259 338.204 57.1359 353.68 60.0619 372.272C60.4519 374.747 61.3379 380.147 62.0309 384.272C62.7239 388.397 64.3099 397.96 65.5539 405.522C66.7979 413.084 69.0539 426.237 70.5679 434.75C72.0799 443.263 73.3559 450.8 73.4019 451.5C73.4479 452.2 73.5799 451.872 73.6959 450.772C73.8119 449.672 73.6599 441.46 73.3619 432.522ZM187.708 353.767C193.474 352.408 196.551 350.111 197.84 346.204C198.583 343.954 198.18 338.18 196.832 331.772C195.883 327.26 192.415 316.627 191 313.892C190.054 312.06 190.424 311.022 192.024 311.022C195.336 311.022 200.278 319.236 205.051 332.669C205.836 334.879 206.681 336.486 207.002 336.381C207.769 336.13 209.688 330.71 210.847 325.522C212 320.36 212.14 308.267 211.112 302.507C208.307 286.79 195.631 273.222 179.736 268.924C176.362 268.012 174.378 267.81 169.318 267.86C155.666 267.998 146.954 271.537 137.259 280.884C132.242 285.72 129.634 288.992 125.603 295.51C122.066 301.226 122.009 301.624 124.655 302.09C129.932 303.018 132.38 305.812 138.34 317.705C143.912 328.824 148.138 335.262 153.245 340.418C158.799 346.024 165.286 350.254 166.487 349.053C167.406 348.134 166.964 336.168 165.752 329.088C164.356 320.938 164.324 319.846 165.468 319.618C169.134 318.889 173.424 329.016 174.792 341.628C175.081 344.298 175.318 348.142 175.318 350.169C175.318 352.196 175.468 354.005 175.652 354.188C176.267 354.804 184.536 354.515 187.708 353.767ZM383.026 353.719C383.696 353.462 383.818 352.35 383.818 346.534C383.818 338.757 384.603 333.466 386.792 326.497C388.406 321.355 389.899 319.318 391.843 319.606C393.746 319.887 394.101 321.088 393.4 324.871C391.6 334.586 391.234 337.974 391.476 342.686C391.614 345.388 391.872 347.744 392.05 347.92C392.587 348.458 396.544 346.088 399.48 343.471C402.622 340.671 407.944 334.2 413.635 326.26C415.766 323.287 418.868 319.402 420.528 317.626L423.548 314.399L430.13 314.748C434.518 314.98 436.82 314.924 437.034 314.576C437.472 313.868 436.113 309.36 433.505 302.868C426.29 284.906 415.988 274.023 401.923 269.504C397.068 267.944 390.688 267.104 389.696 267.895C388.88 268.546 385.818 268.973 385.818 268.436C385.818 266.949 376.391 269.172 370.774 271.984C358.484 278.136 350.352 289.252 347.292 304.085C345.34 313.552 346.478 325.481 350.092 333.441C350.758 334.909 351.566 336.022 351.889 335.915C352.212 335.808 353.198 333.256 354.081 330.246C356.356 322.492 359.188 315.504 360.706 313.897C362.792 311.689 366.318 312.184 366.318 314.685C366.318 315.214 365.536 317.6 364.582 319.988C361.822 326.886 360.644 332.454 360.606 338.772C360.57 344.928 361.148 347.224 363.368 349.752C364.893 351.489 368.53 353.295 371.99 354.034C374.104 354.484 381.586 354.272 383.026 353.719ZM291.428 341.897C292.351 341.176 296.583 334.736 299.179 330.102C301.77 325.475 305.822 321.326 309.488 319.541C314.02 317.338 317.344 316.654 325.5 316.25L332.818 315.887L332.827 313.58C332.836 311.261 334.009 302.177 334.606 299.797L334.926 298.522H279.683H224.44L225.208 301.897C226.206 306.284 226.312 320.548 225.378 324.772C224.391 329.232 221.862 336.948 220.508 339.63C219.854 340.928 219.318 342.109 219.318 342.256C219.318 342.402 235.362 342.522 254.972 342.522C282.735 342.522 290.804 342.384 291.428 341.897ZM498.925 312.522C499.552 310.712 499.91 308.178 499.972 305.108C500.12 297.91 502.65 298.522 472.753 298.522H447.799L448.058 299.647C448.202 300.266 448.766 302.684 449.314 305.022C449.862 307.36 450.456 310.68 450.634 312.402L450.957 315.532L474.465 315.402L497.972 315.272L498.925 312.522ZM339.444 285.397C340.938 282.303 342.982 278.701 343.988 277.392C344.994 276.084 345.818 274.902 345.818 274.768C345.818 274.632 315.836 274.548 279.193 274.58C242.55 274.612 212.962 274.74 213.443 274.866C214.428 275.124 214.552 275.588 213.826 276.314C213.502 276.638 213.962 277.742 215.166 279.53C216.174 281.027 218.038 284.056 219.309 286.262L221.619 290.272L229.594 290.542C233.98 290.69 259.879 290.858 287.148 290.916L336.729 291.022L339.444 285.397ZM477.034 286.522C476.982 280.694 474.712 277.446 469.415 275.624C467.142 274.842 449.57 274.209 449.147 274.894C448.97 275.18 449.41 276.732 450.126 278.343C450.84 279.954 452.088 283.063 452.898 285.252C453.708 287.442 454.615 289.528 454.914 289.887C455.336 290.397 457.84 290.512 466.262 290.406L477.068 290.272L477.034 286.522ZM435.59 273.566C434.374 271.144 432.158 267.048 430.668 264.466C425.194 254.985 421.432 246.232 416.83 232.272C415.38 227.872 414.014 224.076 413.796 223.836C413.576 223.597 411.703 224.458 409.632 225.748C405.565 228.284 394.988 233.038 389.969 234.589C388.26 235.117 386.725 235.768 386.56 236.036C386.394 236.303 385.518 236.522 384.614 236.522C383.71 236.522 380.426 237.084 377.318 237.772C370.745 239.226 367.874 239.41 368.778 238.32C369.099 237.933 372.22 236.338 375.715 234.775C396.308 225.564 408.482 216.718 420.88 201.958C424.58 197.552 425.753 195.614 425.02 195.114C424.744 194.926 422.392 193.288 419.793 191.473C411.952 185.998 402.505 180.532 394.318 176.733C385.252 172.526 377.986 169.846 377.552 170.549C377.386 170.816 376.808 172.634 376.266 174.588C375.724 176.542 374.456 179.948 373.445 182.158L371.608 186.176L372.822 186.974C379.417 191.306 390.773 202.926 391.588 206.176C392.054 208.029 390.708 209.522 388.574 209.522C387.304 209.522 386.644 209.095 385.287 207.397C382.808 204.296 375.586 196.866 371.692 193.412L368.316 190.416L365.307 193.202C361.314 196.899 358.592 198.724 353.546 201.088C347.432 203.954 342.671 205.057 335.016 205.381C325.595 205.78 318.474 204.514 311.675 201.233L309.782 200.32L304.925 202.876C298.062 206.488 294.34 207.522 288.212 207.522C281.081 207.522 274.74 205.583 269.568 201.82C267.833 200.558 267.706 200.554 265.142 201.673C252.962 206.988 232.904 206.642 221.604 200.92C218.82 199.511 212.738 195.282 211.312 193.766C210.494 192.894 209.608 192.52 208.356 192.516C206.695 192.51 205.936 193.155 197.659 201.6C189.22 210.212 188.68 210.666 187.418 210.222C186.67 209.959 185.88 209.17 185.616 208.42C185.208 207.256 185.43 206.718 187.358 204.214C190.415 200.242 199.112 191.233 202.486 188.542C204.908 186.61 205.192 186.208 204.608 185.542C203.412 184.175 201.684 180.376 200.278 176.022C199.201 172.689 198.684 171.738 197.883 171.615C195.746 171.287 179.521 179.182 170.568 184.905C160.835 191.127 157.293 193.735 157.576 194.472C158.468 196.796 164.37 204.082 169.818 209.584C179.368 219.228 188.207 225.351 205.568 234.351C214.168 238.809 214.211 239.006 206.318 237.776C196.658 236.272 189.399 233.742 177.334 227.678C173.354 225.678 169.96 224.206 169.79 224.406C169.619 224.608 168.971 227.219 168.349 230.21C166.072 241.157 162.322 250.667 159.272 253.234C157.209 254.97 157.859 255.612 160.998 254.939C162.38 254.642 166.688 254.514 170.998 254.642C177.932 254.848 179.088 255.023 184.77 256.724C188.182 257.746 191.83 259.018 192.876 259.552C194.736 260.5 196.613 260.522 278.535 260.522H362.292L366.124 259C376.168 255.01 386.928 253.326 395.087 254.468C409.839 256.531 421.054 262.196 431.818 273.024C434.706 275.928 437.234 278.23 437.436 278.138C437.638 278.047 436.808 275.99 435.59 273.566ZM153.296 236.328C154.36 233.53 156.318 222.163 156.318 218.783V215.11L151.54 209.566C148.912 206.517 146.514 204.022 146.212 204.022C144.961 204.022 135.818 212.12 135.818 213.226C135.818 213.526 136.947 214.744 138.326 215.932C141.518 218.68 144.882 223.671 148.763 231.412C150.448 234.772 152.054 237.522 152.334 237.522C152.614 237.522 153.047 236.985 153.296 236.328ZM255.24 192.722C266.589 189.47 276.204 182.616 281.075 174.305C282.038 172.662 282.51 170.87 282.912 167.342C283.208 164.728 283.328 162.27 283.178 161.88C283.024 161.476 281.545 160.902 279.76 160.55C278.031 160.21 275.207 159.42 273.486 158.796C263.922 155.324 253.432 145.558 249.254 136.234C248.412 134.357 248.14 132.762 248.109 129.522C248.071 125.585 248.195 125.038 249.795 122.086C252.29 117.484 256.17 114.734 264.318 111.79C270.596 109.522 276.795 108.494 286.086 108.18C303.692 107.584 315.588 110.598 323.002 117.534C330.335 124.394 331.048 131.098 325.378 139.867C319.987 148.203 308.468 157.18 298.919 160.487C293.348 162.416 293.647 162.04 293.94 166.744C294.27 172.021 295.951 175.671 300.032 179.97C305.358 185.581 313.338 190.144 322.568 192.858C324.788 193.51 327.388 193.744 332.568 193.756C338.978 193.77 339.901 193.654 343.518 192.376C345.69 191.608 348.952 190.111 350.768 189.05C354.641 186.786 358.947 183.134 358.532 182.464C358.186 181.902 351.722 178.65 347.684 177.006C344.157 175.568 342.873 174.328 343.66 173.118C344.501 171.822 346.058 172.184 353.842 175.48C357.793 177.154 361.2 178.522 361.415 178.522C362.546 178.522 366.318 170.25 366.318 167.767C366.318 166.45 366.396 166.482 356.976 164.006C352.238 162.761 351.012 162.042 351.49 160.796C351.863 159.824 354.048 159.932 362.227 161.329C364.514 161.72 366.626 161.89 366.92 161.708C367.544 161.322 367.137 154.819 366.305 151.897L365.771 150.022H356.856C349.791 150.022 347.819 149.876 347.355 149.316C347.033 148.928 346.952 148.498 347.176 148.36C347.897 147.914 353.431 147.056 358.742 146.566C361.588 146.304 364.026 145.981 364.159 145.848C365.045 144.962 359.47 135.958 354.387 130.067C352.424 127.792 350.818 125.708 350.818 125.436C350.818 124.903 352.554 125.874 358.06 129.483C362.506 132.398 370.225 140.056 371.832 143.147C372.8 145.01 373.336 145.524 374.317 145.532C378.694 145.57 390.478 146.586 394.636 147.284C406.634 149.3 418.446 152.848 430.514 158.062C434.884 159.95 438.686 161.354 438.963 161.182C439.66 160.752 439.018 146.266 438.098 141.673C437.702 139.694 436.83 136.318 436.162 134.173C434.899 130.12 434.635 128.546 432.563 112.771C431.876 107.546 430.753 100.95 430.066 98.114C429.38 95.278 428.818 92.786 428.818 92.576C428.818 92.365 430.674 91.8 432.943 91.32C438.254 90.197 441.684 88.628 444.503 86.028C449.544 81.382 452.291 74.945 452.308 67.738C452.325 60.316 450.168 54.792 445.385 50.009C436.967 41.591 422.416 40.243 408.374 46.58C406.617 47.374 404.888 48.022 404.531 48.022C404.174 48.022 402.012 46.682 399.725 45.044C394.944 41.618 390.308 38.837 382.699 34.828C377.128 31.892 367.773 28.022 366.25 28.022C364.191 27.367 361.739 25.802 361.614 26.084C360.719 25.382 350.404 22.1 345.05 20.814C318.068 14.337 285.257 12.716 258.889 16.557C231.322 20.573 205.472 30.168 183.147 44.67L177.726 48.191L173.147 45.908C167.514 43.1 164.294 42.122 159.372 41.73C151.674 41.117 143.762 43.968 138.561 49.23C130.358 57.528 128.93 71.078 135.23 80.825C138.4 85.728 142.171 88.5 149.832 91.558C152.024 92.433 153.818 93.428 153.818 93.768C153.818 94.11 153.266 97.32 152.59 100.904C151.264 107.938 150.548 114.326 150.026 123.772C149.774 128.308 149.416 130.444 148.558 132.522C145.622 139.636 145.184 141.86 144.938 150.897C144.806 155.792 144.898 159.522 145.15 159.522C145.396 159.522 147.84 158.536 150.582 157.33C164.624 151.156 186.878 146.022 199.598 146.022H203.828L205.198 143.996C207.66 140.358 210.799 136.835 214.417 133.651C218.418 130.13 224.674 125.711 225.08 126.118C225.228 126.265 223.9 128.179 222.129 130.372C217.04 136.676 212.275 144.718 213.154 145.522C213.382 145.73 216.156 146.172 219.318 146.502C226.066 147.209 228.728 147.732 229.499 148.504C230.658 149.662 228.435 150.007 219.77 150.014L210.972 150.022L210.145 153.786C209.69 155.856 209.318 158.588 209.318 159.856V162.162L211.693 161.851C212.999 161.68 215.53 161.316 217.318 161.041C223.561 160.082 227.989 160.593 225.409 161.974C224.894 162.25 221.358 163.382 217.552 164.49C213.747 165.599 210.417 166.723 210.152 166.988C209.548 167.592 211.906 174.51 213.616 177.147C214.285 178.178 215.172 179.022 215.586 179.022C216 179.022 218.148 178.113 220.356 177.002C222.566 175.892 226.293 174.288 228.64 173.44C232.545 172.026 232.974 171.963 233.704 172.693C234.434 173.423 234.42 173.58 233.548 174.544C233.023 175.124 231.126 176.398 229.331 177.374C220.944 181.94 218.818 183.246 218.818 183.836C218.818 184.652 224.184 188.462 228.094 190.42C236.458 194.611 245.864 195.408 255.24 192.722ZM431.066 186.397C433.205 181.722 434.852 177.471 436.63 172.028C438.148 167.384 438.928 168.127 426.818 162.67C422.142 160.562 411.304 156.681 406.318 155.328C395.319 152.344 377.468 149.644 376.362 150.798C376.088 151.083 376.181 152.666 376.594 154.772C376.972 156.697 377.29 159.683 377.3 161.408C377.32 164.979 376.778 164.531 383.818 166.793C396.107 170.742 412.524 179.115 424.318 187.45C426.656 189.102 428.706 190.468 428.874 190.488C429.042 190.506 430.028 188.666 431.066 186.397ZM159.962 185.336C170.559 177.792 184.301 170.426 194.125 167.023L198.682 165.444L198.994 162.108C199.166 160.273 199.77 157.106 200.336 155.07C200.953 152.847 201.182 151.186 200.91 150.914C200.361 150.365 189.612 151.664 182.818 153.1C172.15 155.356 161 159.095 151.16 163.718L145.386 166.432L146.067 169.352C147.479 175.4 153.157 189.022 154.267 189.022C154.552 189.022 157.114 187.363 159.962 185.336Z"/></g><path fill="#E8683A" stroke="#E8683A" d="M391.818 346.813C391.818 346.148 391.694 345.28 391.542 344.884C391.364 344.423 394.024 341.294 398.916 336.208C414.455 320.052 417.816 315.106 419.388 306.084C420.734 298.348 417.91 286.62 412.822 278.828C410.911 275.9 410.522 274.976 411.022 274.56C412.421 273.399 420.168 280.079 424.56 286.234C425.78 287.944 427.797 291.155 429.042 293.37C432.785 300.025 437.802 313.336 437.034 314.576C436.82 314.924 434.518 314.98 430.13 314.748L423.548 314.399L420.528 317.626C418.868 319.402 415.766 323.287 413.635 326.26C405.35 337.82 400.268 343.49 395.468 346.534C392.624 348.338 391.818 348.4 391.818 346.813Z"/><path fill="#F58948" stroke="#F58948" d="M371.99 354.034C368.53 353.295 364.893 351.489 363.368 349.752C361.148 347.224 360.57 344.928 360.606 338.772C360.644 332.454 361.822 326.886 364.582 319.988C365.536 317.6 366.318 315.214 366.318 314.685C366.318 312.184 362.79 311.688 360.711 313.897C359.42 315.27 355.572 324.537 354.328 329.272C353.46 332.573 352.97 333.045 351.843 331.666C350.29 329.768 349.694 317.806 350.805 310.852C353.046 296.824 361.056 283.291 371.58 275.752C375.584 272.886 382.236 269.71 385.738 268.996C387.295 268.679 389.056 268.189 389.652 267.908C392.238 266.688 402.74 269.08 408.443 272.186C411.318 273.753 411.738 274.204 410.839 274.759C410.576 274.922 411.463 276.745 412.811 278.81C417.91 286.621 420.736 298.34 419.388 306.084C417.804 315.175 414.179 320.456 398.158 337.01L391.153 344.248L391.48 338.51C391.66 335.354 392.26 330.656 392.813 328.071C394.306 321.085 394.076 319.522 391.555 319.522C389.778 319.522 388.305 321.697 386.762 326.6C384.605 333.45 383.818 338.78 383.818 346.534C383.818 352.35 383.696 353.462 383.026 353.719C381.586 354.272 374.104 354.484 371.99 354.034Z"/><path fill="#FFCEA6" stroke="#FFCEA6" d="M350.092 333.441C346.478 325.481 345.34 313.552 347.292 304.085C350.352 289.252 358.484 278.136 370.774 271.984C374.912 269.913 381.295 268.022 384.148 268.022C386.458 268.022 386.238 268.738 383.693 269.5C382.524 269.85 379.993 270.924 378.068 271.888C361.508 280.173 350.432 298.702 350.249 318.427C350.178 326.06 350.796 330.544 352.096 331.846C352.986 332.735 353.16 333.292 352.877 334.348C352.28 336.58 351.384 336.288 350.092 333.441Z"/><path fill="#FFFFFE" stroke="#FFFFFE" d="M80.4499 401.104C80.0049 400.828 79.5829 391.481 78.8329 365.298C77.5779 321.47 77.5549 316.62 78.5959 315.134L79.3739 314.022H101.094H122.813L127.522 323.429C130.112 328.604 133.712 335.054 135.524 337.763C137.336 340.472 138.818 342.708 138.818 342.73C138.819 342.753 136.099 342.696 132.774 342.604C125.642 342.406 120.092 343.06 116.017 344.58C110.938 346.475 104.214 354.059 102.55 359.772C102.149 361.147 101.049 367.784 100.106 374.522C99.1639 381.26 98.1279 388.292 97.8039 390.151C97.2429 393.365 97.1499 393.526 95.8909 393.43C94.4439 393.322 82.1019 399.602 81.4409 400.784C81.2259 401.169 80.7859 401.312 80.4499 401.104Z"/><path fill="#FFFFFE" stroke="#FFFFFE" d="M73.4019 451.5C73.3559 450.8 72.0799 443.263 70.5679 434.75C69.0539 426.237 66.7979 413.084 65.5539 405.522C64.3099 397.96 62.7239 388.397 62.0309 384.272C61.3379 380.147 60.4519 374.747 60.0619 372.272C57.1359 353.68 54.6259 338.204 53.5739 332.272C50.6519 315.783 48.3029 300.186 48.5759 299.078C48.8579 297.937 49.0039 297.899 51.9179 298.204C53.5939 298.378 62.4939 298.522 71.6949 298.522C87.4379 298.522 88.4029 298.574 88.0509 299.397C87.2699 301.224 87.2499 302.942 87.9959 304.382L88.7669 305.874L83.8659 306.172C77.9709 306.532 75.3519 307.489 73.1159 310.102C70.2129 313.493 70.1349 314.31 70.5099 337.426C70.6959 348.891 71.0649 364.01 71.3309 371.022C71.5969 378.034 72.0399 391.084 72.3159 400.022C72.5919 408.96 73.0619 423.584 73.3619 432.522C73.6599 441.46 73.8119 449.672 73.6959 450.772C73.5799 451.872 73.4479 452.2 73.4019 451.5Z"/><path fill="#FFC745" stroke="#FFC745" d="M71.5999 546.48C71.1139 545.108 65.3659 515.606 62.8399 501.522C61.4339 493.684 59.1729 481.31 57.8159 474.022C54.1339 454.254 48.2709 422.046 47.9479 419.82C47.4359 416.278 48.6219 418.32 49.2879 422.124C49.6379 424.13 50.2499 427.01 50.6479 428.522C51.0459 430.034 51.6909 433.972 52.0809 437.272C52.9339 444.484 53.1549 445.664 54.0649 447.842C54.6559 449.256 55.0219 449.522 56.3779 449.522C57.2639 449.522 58.3999 449.15 58.9039 448.694C59.7789 447.902 59.8179 447.984 59.8179 450.616C59.8179 452.128 60.2399 454.592 60.7559 456.092C61.7289 458.92 62.5699 463.658 64.2909 476.027C64.8459 480.017 65.6299 484.404 66.0319 485.777C66.9419 488.882 69.1299 501.6 69.5479 506.209C69.7179 508.1 70.1839 511.024 70.5809 512.709C71.0019 514.495 71.3059 518.332 71.3099 521.913C71.3189 528.937 71.9659 531.29 74.0349 531.808C74.7399 531.986 75.3179 532.352 75.3179 532.624C75.3179 532.894 74.7299 536.076 74.0119 539.694C72.7299 546.151 72.1059 547.908 71.5999 546.48Z"/><path fill="#FFFFFE" stroke="#FFFFFE" d="M219.318 342.256C219.318 342.109 219.854 340.928 220.508 339.63C221.862 336.948 224.391 329.232 225.378 324.772C226.312 320.548 226.206 306.284 225.208 301.897L224.44 298.522H279.683H334.926L334.606 299.797C334.009 302.177 332.836 311.261 332.827 313.58L332.818 315.887L325.5 316.25C317.344 316.654 314.02 317.338 309.488 319.541C305.822 321.326 301.77 325.475 299.179 330.102C296.583 334.736 292.351 341.176 291.428 341.897C290.804 342.384 282.735 342.522 254.972 342.522C235.362 342.522 219.318 342.402 219.318 342.256Z"/><path fill="#FEA531" stroke="#FEA531" d="M454.914 289.887C454.615 289.528 453.708 287.442 452.898 285.252C452.088 283.063 450.84 279.954 450.126 278.343C449.41 276.732 448.97 275.18 449.147 274.894C449.57 274.209 467.142 274.842 469.415 275.624C474.712 277.446 476.982 280.694 477.034 286.522L477.068 290.272L466.262 290.406C457.84 290.512 455.336 290.397 454.914 289.887Z"/><path fill="#D7DCE4" stroke="#D7DCE4" d="M83.5199 469.144C82.5239 468.981 82.4559 468.58 82.1469 461.122C81.8219 453.283 80.6399 423.838 80.0479 408.842C79.7949 402.413 79.8599 400.952 80.3919 401.13C80.7519 401.25 81.3899 400.962 81.8079 400.49C82.2259 400.017 85.3799 398.183 88.8179 396.415C95.3719 393.044 97.5359 392.59 97.0839 394.682C96.9539 395.282 96.3939 398.81 95.8399 402.522C94.4739 411.674 91.3499 432.33 88.3219 452.226C86.9439 461.276 85.8179 468.734 85.8179 468.798C85.8179 469.096 84.4639 469.3 83.5199 469.144Z"/><path fill="#FFBF35" stroke="#FFBF35" d="M44.3179 401.034C44.3179 400.766 43.5419 396.435 42.5949 391.41C41.6479 386.384 40.0559 377.66 39.0579 372.022C38.0609 366.384 36.7019 358.734 36.0389 355.022C34.6939 347.492 34.6459 347.022 35.2259 347.022C35.4509 347.022 36.1259 350.004 36.7279 353.647C38.0159 361.453 39.5459 369.936 42.5689 386.022C45.6189 402.251 45.5099 401.522 44.8739 401.522C44.5679 401.522 44.3179 401.302 44.3179 401.034Z"/><path fill="#FEA531" stroke="#FEA531" d="M54.0649 447.842C53.1549 445.664 52.9339 444.484 52.0809 437.272C51.6909 433.972 51.0499 430.034 50.6549 428.522C50.2599 427.01 49.3359 422.51 48.6009 418.522C46.4779 407.004 45.0139 399.134 42.6069 386.272C39.8499 371.544 38.0499 361.574 36.7819 354.022C35.5639 346.772 34.7559 343.522 33.8979 341.022C33.3019 341.022 31.1649 329.918 31.1309 326.647C31.1159 325.204 30.9019 324.022 30.6559 324.022C27.9859 319.757 27.9859 311.558 27.7419 307.914C27.4459 307.815 27.1739 306.392 27.1359 304.753C27.0989 303.114 26.8779 301.634 26.6469 301.464C26.4159 301.294 26.1899 300.17 26.1469 298.964C26.1029 297.758 25.9279 296.66 25.7579 296.522C25.1919 296.064 22.7249 281.312 22.7699 278.647C22.7939 277.203 22.6179 276.022 22.3779 276.022C21.9119 276.022 21.6859 275.11 20.5319 268.584C20.1239 266.28 19.9239 263.974 20.0879 263.458C20.2519 262.944 20.1839 262.522 19.9379 262.522C19.3729 262.522 18.3179 256.893 18.3179 253.881C18.3179 252.592 18.0649 251.521 17.7339 251.411C17.4139 251.304 17.1319 250.328 17.1099 249.244C17.0859 248.16 16.8429 247.112 16.5679 246.915C16.2929 246.718 16.0939 244.975 16.1269 243.04C16.1619 240.994 15.9779 239.522 15.6879 239.522C14.9909 239.522 15.7329 230.638 16.5639 229.031C17.5019 227.216 18.9109 226.078 20.6539 225.73C21.8959 225.482 22.5109 225.722 24.0149 227.042C26.9719 229.639 27.1659 230.364 25.3949 232.2C23.3999 234.269 22.8179 235.947 22.8179 239.632C22.8179 247.298 28.2179 272.547 34.3419 293.522C35.5059 297.51 36.7559 302.128 37.1189 303.785C38.5199 310.182 40.0119 326.731 39.5539 330.803C39.0339 335.433 41.0519 349.324 44.4559 364.522C45.4099 368.784 46.4539 374.108 46.7749 376.352C47.0959 378.597 47.9259 382.76 48.6189 385.602C50.4699 393.201 53.6229 409.562 54.2879 415.022C54.6069 417.634 55.5469 423.432 56.3779 427.906C57.2089 432.379 58.2949 438.679 58.7919 441.906C59.8279 448.645 59.5599 449.522 56.4649 449.522C55.0099 449.522 54.6659 449.281 54.0649 447.842Z"/><path fill="#FCFAF6" stroke="#FCFAF6" d="M88.0809 304.547C87.1679 302.781 87.1189 301.506 87.8979 299.796L88.4779 298.522H99.7019H110.926L110.642 299.656C110.486 300.279 110.104 301.966 109.796 303.406L109.235 306.022H99.0399H88.8439L88.0809 304.547Z"/><path fill="#FFFFFE" stroke="#FFFFFE" d="M450.634 312.402C450.456 310.68 449.862 307.36 449.314 305.022C448.766 302.684 448.202 300.266 448.058 299.647L447.799 298.522H472.753C502.65 298.522 500.12 297.91 499.972 305.108C499.91 308.178 499.552 310.712 498.925 312.522L497.972 315.272L474.465 315.402L450.957 315.532L450.634 312.402Z"/><path fill="#FFBF35" stroke="#FFBF35" d="M46.1659 410.894C44.6379 402.31 44.6609 402.522 45.2519 402.522C45.4919 402.522 45.8189 403.254 45.9799 404.147C47.8389 414.442 48.3039 417.736 47.9459 418.094C47.7139 418.326 46.9119 415.087 46.1659 410.894Z"/><path fill="#E4E7EA" stroke="#E4E7EA" d="M83.1929 482.23C82.9869 482.024 82.8179 478.982 82.8179 475.472C82.8179 475.472 82.8179 469.089 85.6479 470.224C85.5159 470.8 85.1409 472.96 84.8139 475.022C83.7139 481.96 83.5699 482.607 83.1929 482.23Z"/><path fill="#FFCC56" stroke="#FFCC56" d="M73.1859 531.397C71.7479 530.305 71.3179 528.12 71.3099 521.864C71.3059 518.326 70.9999 514.488 70.5809 512.709C70.1839 511.024 69.7179 508.1 69.5479 506.209C69.1299 501.6 66.9419 488.882 66.0319 485.777C65.6299 484.404 64.8459 480.017 64.2909 476.027C62.5699 463.658 61.7289 458.92 60.7559 456.092C60.2399 454.592 59.8179 452.308 59.8179 451.016C59.8179 448.247 58.2679 437.826 56.5449 429.022C55.8719 425.584 54.9759 420.072 54.5519 416.772C53.6479 409.719 50.8049 394.724 48.7919 386.396C48.0119 383.164 47.1059 378.664 46.7819 376.396C46.4559 374.128 45.4099 368.784 44.4559 364.522C41.0519 349.324 39.0339 335.433 39.5539 330.803C40.0119 326.731 38.5199 310.182 37.1189 303.785C36.7559 302.128 35.5059 297.51 34.3419 293.522C30.3879 279.978 25.9029 261.304 24.3169 251.772C22.4909 240.8 22.4339 235.944 24.1069 233.704C26.1569 230.958 27.3789 230.431 32.1319 230.24C36.9669 230.045 67.6019 229.404 68.8179 229.473C73.8999 229.758 86.0899 229.456 87.8179 229.012C87.3269 229.322 89.7369 229.482 94.7999 229.476C99.0519 229.472 102.782 229.26 103.088 229.006C103.394 228.752 108 228.483 113.324 228.408L123.005 228.272L123.432 226.624C123.959 224.588 124.796 224.226 126.698 225.21C128.973 226.386 131.124 229.156 133.614 234.113C134.866 236.608 137.788 242.104 140.105 246.325C142.422 250.546 144.318 254.292 144.318 254.65C144.318 255.366 140.176 259.492 132.611 266.306C126.534 271.782 120.022 279.276 115.768 285.693L112.568 290.52L81.5339 290.521C46.4819 290.522 46.8179 290.492 43.6499 293.996C40.2449 297.766 40.1899 299.78 43.0619 315.772C45.2449 327.926 48.0809 344.424 49.0349 350.522C49.4439 353.134 50.3399 358.76 51.0269 363.022C51.7139 367.284 52.6339 373.247 53.0719 376.272C53.7959 381.278 64.4759 446.335 66.8219 460.022C67.3639 463.184 68.3659 469.597 69.0499 474.272C72.3799 497.022 74.8919 513.123 75.6359 516.487C76.2439 519.23 76.3839 521.519 76.1719 525.237C75.7859 532.034 75.3119 533.011 73.1859 531.397Z"/><path fill="#FF9D0E" stroke="#FF9D0E" d="M181.568 374.556C175.604 373.816 167.941 370.687 162.943 366.952C160.24 364.931 159.359 363.15 161.38 363.792C162.096 364.019 162.331 363.948 162.101 363.576C161.648 362.842 161.603 362.834 165.756 364.284C179.38 369.044 192.244 367.7 203.18 360.372C205.48 358.831 205.728 358.778 209.943 358.934C212.878 359.042 214.316 359.289 214.311 359.684C214.307 360.007 213.154 361.576 211.749 363.17C204.6 371.281 192.363 375.898 181.568 374.556Z"/><path fill="#FEA531" stroke="#FEA531" d="M218.636 280.77C217.572 280.365 216.516 280.15 216.287 280.291C215.616 280.706 213.252 276.888 213.824 276.316C214.551 275.589 214.429 275.124 213.443 274.866C212.962 274.74 242.55 274.612 279.193 274.58C315.836 274.548 345.818 274.626 345.818 274.752C345.818 274.878 344.901 276.206 343.781 277.704C341.883 280.242 341.551 280.462 338.906 280.924C337.106 281.238 334.998 281.25 333.146 280.956C330.088 280.472 226.882 280.726 222.818 281.227C221.406 281.401 219.848 281.23 218.636 280.77Z"/><path fill="#FFC745" stroke="#FFC745" d="M229.696 290.649C222.178 290.504 221.794 290.447 221.143 289.384C217.744 283.834 215.966 280.49 216.306 280.28C216.529 280.142 217.588 280.338 218.66 280.716C220.25 281.277 222.992 281.322 233.588 280.962C244.546 280.588 333.053 280.702 336.068 281.094C336.618 281.165 338.13 281.052 339.428 280.844L341.789 280.465L339.32 285.618L336.85 290.772L287.209 290.787C259.906 290.795 234.026 290.733 229.696 290.649Z"/><path fill="#FFBF35" stroke="#FFBF35" d="M26.5679 230.02C26.4069 229.514 25.3589 228.272 24.2389 227.26C22.5289 225.716 21.9499 225.466 20.2279 225.028C20.8669 224.492 22.1039 223.924 22.9779 223.765C24.9679 223.404 123.636 223.673 124.004 224.041C124.152 224.189 123.967 225.202 123.592 226.291L122.912 228.272L113.278 228.408C107.979 228.483 103.394 228.752 103.088 229.006C102.782 229.26 99.0519 229.472 94.7999 229.476C89.7369 229.482 87.3269 229.322 86.2339 228.974C86.0619 229.442 79.5999 229.662 66.3179 229.651C62.0559 229.648 57.5559 229.706 56.3179 229.782C55.0799 229.858 48.5919 229.963 41.8999 230.018C35.2079 230.072 29.0859 230.302 28.2959 230.528C27.1229 230.865 26.8059 230.772 26.5679 230.02Z"/><path fill="#FFCC56" stroke="#FFCC56" d="M86.0179 563.82C86.6429 557.101 93.9579 509.268 100.326 470.272C104.962 441.879 106.8 430.234 111.576 399.022C113.112 388.984 114.712 379.084 115.13 377.022C117.054 367.542 122.544 361.791 132.068 359.278C135.152 358.464 142.88 357.643 149.068 357.472C152.376 357.38 152.738 357.484 155.648 359.369C157.341 360.466 159.406 361.644 160.236 361.988C161.99 362.714 162.942 364.288 161.315 363.771C159.358 363.15 160.29 364.968 162.943 366.952C166.365 369.509 170.559 371.563 175.798 373.246C179.215 374.344 181.042 374.616 185.298 374.662C193.15 374.746 199.249 372.812 206.381 367.976C209.293 366.002 214.298 360.744 214.311 359.647C214.315 359.303 214.374 358.974 214.443 358.916C214.512 358.857 232.793 358.688 255.068 358.54L295.568 358.272L297.78 357.022C299.802 355.88 300.46 354.931 305.409 346.022C313.126 332.132 314.53 331.093 326.068 330.758C329.368 330.662 331.562 330.698 330.943 330.838C330.274 330.988 329.818 331.466 329.818 332.016C329.818 333.237 334.608 343.843 337.16 348.272C339.197 351.809 343.837 359.221 345.454 361.522C347.14 363.922 353.096 369.678 356.572 372.27C361.284 375.782 364.144 377.162 371.048 379.255C376.252 380.832 377.486 381.022 382.568 381.022C385.698 381.022 388.379 380.828 388.525 380.592C388.671 380.356 389.754 380.027 390.93 379.862C392.106 379.697 395.206 378.854 397.818 377.988C416.204 371.894 432.082 356.464 442.991 334.092L445.517 328.912L481.042 329.142C519.47 329.39 518.526 329.322 522.481 333.62C521.026 333.996 520.943 334.161 520.686 337.144C520.5 339.312 519.234 343.493 516.558 350.772C514.436 356.547 511.582 364.31 510.216 368.022C508.85 371.734 505.638 380.847 503.08 388.272C500.521 395.697 496.848 406.047 494.918 411.272C471.369 475.006 467.764 483.404 456.98 499.678C445.828 516.506 430.286 531.32 412.528 542.046C402.608 548.038 388.672 553.536 378.318 555.542C371.44 556.874 357.526 558.095 353.492 557.72C351.514 557.536 348.897 557.642 347.314 557.97C345.804 558.284 337.593 558.677 329.068 558.844C304.55 559.323 306.42 559.268 276.068 560.419C269.743 560.659 262.993 560.884 261.068 560.919C259.143 560.954 254.418 561.103 250.568 561.25C246.718 561.398 239.856 561.622 235.318 561.749C230.78 561.876 223.693 562.14 219.568 562.336C215.443 562.532 209.258 562.638 205.824 562.573C202.39 562.508 198.228 562.693 196.574 562.986C194.921 563.278 187.043 563.64 179.068 563.788C171.093 563.938 161.08 564.182 156.818 564.332C152.556 564.482 146.03 564.669 142.318 564.746C138.606 564.824 132.868 565.028 129.568 565.198C126.268 565.37 116.593 565.746 108.068 566.036C99.5429 566.325 91.0199 566.74 89.1289 566.96L85.6899 567.358L86.0179 563.82Z"/><path fill="#FEA531" stroke="#FEA531" d="M89.7659 582.912C86.5449 578.858 85.6459 576.435 85.6919 571.92C85.7119 569.802 85.8619 567.854 86.0259 567.59C86.4099 566.968 91.3529 566.628 109.068 566.009C117.043 565.73 126.268 565.364 129.568 565.195C132.868 565.026 138.606 564.824 142.318 564.746C146.03 564.669 152.556 564.482 156.818 564.332C161.08 564.182 171.093 563.938 179.068 563.788C187.043 563.64 194.921 563.278 196.574 562.986C198.228 562.693 202.39 562.508 205.824 562.573C209.258 562.638 215.443 562.532 219.568 562.336C223.693 562.14 230.78 561.876 235.318 561.749C239.856 561.622 246.718 561.398 250.568 561.25C254.418 561.103 259.143 560.954 261.068 560.919C262.993 560.884 269.743 560.659 276.068 560.419C306.42 559.268 304.55 559.323 329.068 558.844C337.593 558.677 345.804 558.284 347.314 557.97C348.897 557.642 351.514 557.536 353.492 557.72C357.526 558.095 371.44 556.874 378.318 555.542C399.131 551.51 421.204 539.028 439.366 521.022C446.66 513.79 451.574 507.836 456.98 499.678C467.764 483.404 471.369 475.006 494.918 411.272C496.848 406.047 500.521 395.697 503.08 388.272C505.638 380.847 508.849 371.734 510.214 368.022C511.58 364.31 514.315 356.884 516.293 351.522C518.271 346.16 520.206 340.422 520.592 338.772L521.296 335.772L521.01 340.772C520.852 343.522 520.402 346.754 520.008 347.955C519.613 349.156 519.15 351.48 518.979 353.12C518.808 354.76 518.346 356.423 517.953 356.816C517.56 357.209 516.244 361.522 515.029 366.401C513.814 371.28 511.25 381.122 509.33 388.272C507.411 395.422 504.583 406.11 503.046 412.022C501.508 417.934 499.595 425.134 498.795 428.022C497.995 430.91 497.11 434.734 496.828 436.522C496.246 440.216 495.304 444.401 494.072 448.772C493.607 450.422 492.708 454.472 492.076 457.772C491.444 461.072 488.625 472.884 485.812 484.022C482.998 495.16 479.924 507.502 478.98 511.448C478.037 515.396 476.517 521.246 475.602 524.448C474.688 527.652 473.1 533.76 472.074 538.022C470.384 545.036 469.197 549.732 466.255 561.022C463.036 573.376 460.92 576.08 450.318 581.394L447.568 582.772H302.818C195.04 582.772 157.671 582.625 156.514 582.198C154.562 581.476 138.505 582.135 137.67 582.97C136.974 583.666 111.474 583.713 108.568 583.024C107.468 582.764 103.944 582.526 100.736 582.496C96.0399 582.452 94.6539 582.606 92.3499 585.252C92.0829 585.417 90.9199 584.364 89.7659 582.912Z"/><path fill="#FDEDD0" stroke="#FDEDD0" d="M206.318 358.652C206.318 358.586 208.146 356.786 210.379 354.652L214.44 350.772L255.086 350.522L295.732 350.272L297.9 348.772C299.435 347.71 301.255 345.446 304.132 341.022C309.4 332.92 311.756 330.308 314.696 329.306C317.615 328.311 332.761 328.165 333.718 329.122C335.136 330.54 334.252 330.772 327.443 330.772C314.756 330.772 313.336 331.754 305.406 346.022C299.392 356.844 298.546 357.717 293.571 358.247C291.165 358.503 206.318 358.897 206.318 358.652Z"/><path fill="#FF9D0E" stroke="#FF9D0E" d="M105.568 591.058C101.454 590.822 100.116 590.532 98.0139 589.424C94.6999 587.676 92.3799 585.704 92.5199 584.754C92.7839 582.952 94.6419 582.44 100.71 582.496C103.932 582.526 107.468 582.764 108.568 583.024C111.474 583.713 136.974 583.666 137.67 582.97C138.505 582.135 154.562 581.476 156.514 582.198C157.671 582.625 195.04 582.772 302.818 582.772H447.568L450.318 581.394C460.92 576.08 463.036 573.376 466.255 561.022C469.197 549.732 470.384 545.036 472.074 538.022C473.1 533.76 474.688 527.652 475.602 524.448C476.517 521.246 478.037 515.396 478.98 511.448C479.924 507.502 482.998 495.16 485.812 484.022C488.625 472.884 491.444 461.072 492.076 457.772C492.708 454.472 493.607 450.422 494.072 448.772C495.304 444.401 496.246 440.216 496.828 436.522C497.11 434.734 497.995 430.91 498.795 428.022C499.595 425.134 501.508 417.934 503.046 412.022C504.583 406.11 507.411 395.422 509.33 388.272C511.25 381.122 513.814 371.28 515.029 366.401C516.244 361.522 517.56 357.209 517.953 356.816C518.346 356.423 518.808 354.76 518.979 353.12C519.15 351.48 519.641 349.106 520.069 347.845C520.554 346.418 520.889 343.424 520.958 339.912C521.018 336.81 521.293 334.106 521.568 333.904C522.844 332.967 524.312 333.584 525.714 335.647C527.665 338.516 528.318 340.625 528.318 344.056C528.318 346.986 515.686 398.65 504.976 439.522C502.346 449.56 499.996 458.56 499.756 459.522C499.516 460.484 497.875 467.122 496.11 474.272C492.33 489.576 473.608 563.528 472.502 567.522C470.313 575.422 467.794 580.18 464.148 583.302C461.407 585.648 456.195 588.621 452.252 590.088L449.068 591.272L279.818 591.308C186.73 591.329 108.318 591.216 105.568 591.058Z"/><path fill="#FD9F2B" stroke="#FD9F2B" d="M370.896 379.234C364.128 377.155 361.242 375.752 356.572 372.27C353.096 369.678 347.14 363.922 345.454 361.522C340.756 354.837 335.686 345.979 332.48 338.856C329.103 331.352 329.092 331.022 332.215 331.022H334.612L336.012 335.32C336.782 337.684 338.53 341.854 339.898 344.586C341.909 348.602 343.232 350.44 346.798 354.164C354.604 362.318 363.44 366.422 374.24 366.91C385.19 367.404 394.4 364.454 404.79 357.122C409.486 353.807 417.473 345.628 421.975 339.522C424.104 336.634 426.738 333.09 427.83 331.647L429.813 329.022H437.553H445.293L444.839 330.216C444.033 332.336 440.403 339.349 438.064 343.306C430.428 356.22 418.106 368.414 406.818 374.226C402.218 376.594 394.36 379.381 390.93 379.862C389.754 380.027 388.671 380.356 388.525 380.592C388.379 380.828 385.628 381.012 382.414 380.999C377.194 380.978 375.961 380.79 370.896 379.234Z"/><path fill="#FDEDD0" stroke="#FDEDD0" d="M93.6989 590.086C87.5339 588.478 81.6249 583.552 78.7339 577.61C76.6479 573.324 76.8239 571.29 81.9839 540.022C84.5939 524.21 87.1829 508.46 87.7379 505.022C88.2929 501.584 89.3159 495.397 90.0109 491.272C92.1559 478.544 98.1389 440.501 102.081 414.522C109.69 364.374 109.82 363.616 111.367 360.02C112.621 357.104 115.7 354.105 119.328 352.267C122.448 350.686 127.576 350.044 137.192 350.031L143.816 350.022L148.048 353.647L152.28 357.272L145.674 357.618C128.693 358.51 121.795 361.692 117.157 370.772C115.668 373.687 114.964 376.974 112.76 391.272C111.87 397.047 111.007 401.884 110.842 402.022C110.197 402.557 108.855 406.382 108.562 408.522C108.392 409.76 107.829 412.797 107.312 415.272C106.795 417.747 105.91 423.386 105.344 427.805C104.026 438.102 100.59 460.304 99.3129 466.772C98.0179 473.332 94.9819 493.484 94.0039 502.022C93.5789 505.734 92.5819 511.584 91.7879 515.022C90.9939 518.46 90.1039 523.41 89.8099 526.022C89.0859 532.448 88.0659 538.814 86.8459 544.522C85.6699 550.028 85.5959 551.489 86.4079 553.271C86.8639 554.271 86.8579 555.906 86.3819 560.42C86.0429 563.638 85.7349 568.433 85.6979 571.074C85.6359 575.41 85.7669 576.158 87.0479 578.776C88.8769 582.515 93.2959 586.848 97.6459 589.168L101.068 590.993L99.0679 590.978C97.9679 590.97 95.5519 590.569 93.6989 590.086Z"/><path fill="#FDE1BC" stroke="#FDE1BC" d="M86.4429 553.574C85.6169 550.883 85.6519 550.113 86.8459 544.522C88.0659 538.814 89.0859 532.448 89.8099 526.022C90.1039 523.41 90.9939 518.46 91.7879 515.022C92.5819 511.584 93.5789 505.734 94.0039 502.022C94.9819 493.484 98.0179 473.332 99.3129 466.772C100.59 460.304 104.026 438.102 105.344 427.805C105.91 423.386 106.798 417.747 107.32 415.272C107.842 412.797 108.424 409.654 108.616 408.288C109 405.55 110.788 401.067 110.807 402.798C110.827 404.676 105.742 437.392 99.8519 473.272C97.6399 486.747 94.9179 503.734 93.8019 511.022C91.7919 524.137 87.5479 552.186 87.2319 554.441C87.0979 555.393 86.9519 555.232 86.4429 553.574Z"/><path fill="#F58948" stroke="#F58948" d="M187.818 257.656C179.452 255.055 176.332 254.528 169.318 254.538C165.606 254.542 161.668 254.754 160.568 255.01C157.834 255.644 157.292 254.9 159.272 253.234C162.322 250.667 166.072 241.157 168.349 230.21C168.971 227.219 169.619 224.608 169.79 224.406C169.96 224.206 173.354 225.678 177.334 227.679C185.484 231.778 193.656 235.094 197.966 236.049C199.56 236.402 200.958 236.844 201.074 237.032C201.37 237.51 197.419 249.854 196.196 252.272C195.64 253.372 194.371 255.296 193.376 256.547L191.568 258.822L187.818 257.656Z"/><path fill="#F58948" stroke="#F58948" d="M175.652 354.188C175.468 354.005 175.318 352.196 175.318 350.169C175.318 340.931 173.374 330.574 170.533 324.666C168.748 320.955 167.084 319.296 165.468 319.618C164.324 319.846 164.356 320.938 165.752 329.088C166.964 336.168 167.406 348.134 166.487 349.053C165.286 350.254 158.799 346.024 153.245 340.418C148.133 335.258 143.912 328.822 138.322 317.669C135.368 311.774 132.98 307.698 131.548 306.105L129.336 303.644L130.131 300.966C131.279 297.101 135.326 289.274 138.048 285.654C143.826 277.97 153.24 271.984 163.818 269.264C169.774 267.734 181.632 268.906 186.866 271.544C200.018 278.172 208.762 289.338 211.112 302.507C212.14 308.267 212 320.36 210.847 325.522C209.688 330.71 207.769 336.13 207.002 336.381C206.681 336.486 205.836 334.879 205.051 332.669C202.526 325.562 200.757 321.58 198.268 317.404C195.477 312.72 193.816 311.022 192.024 311.022C190.424 311.022 190.054 312.06 191 313.892C192.415 316.627 195.883 327.26 196.832 331.772C198.18 338.18 198.583 343.954 197.84 346.204C196.551 350.111 193.474 352.408 187.708 353.767C184.536 354.515 176.267 354.804 175.652 354.188Z"/><path fill="#FFCEA6" stroke="#FFCEA6" d="M127.068 302.752C126.243 302.375 124.962 302.057 124.222 302.044C123.482 302.032 122.76 301.833 122.618 301.602C121.857 300.371 129.894 288.446 135.178 282.964C140.626 277.314 144.448 274.397 149.568 271.986C154.644 269.596 158.41 268.634 165.336 267.954C170.88 267.41 177.348 267.9 179.994 269.064C180.853 269.442 180.718 269.488 179.318 269.292C173.684 268.505 166.931 268.464 164.068 269.2C156.25 271.211 148.581 275.18 143.23 279.986C138.034 284.654 132.532 293.382 130.3 300.501C129.828 302.002 129.247 303.276 129.006 303.333C128.765 303.39 127.893 303.128 127.068 302.752Z"/><path fill="#E8683A" stroke="#E8683A" d="M433.641 274.707C427.192 267.75 418.219 261.46 410.068 258.184C407.868 257.3 403.48 256.085 400.318 255.484C392.464 253.99 392.591 254.058 391.32 250.68C389.79 246.612 387.198 236.554 387.487 235.802C387.619 235.458 388.816 234.876 390.148 234.509C394.149 233.404 405.644 228.234 409.648 225.738C411.71 224.453 413.576 223.597 413.796 223.836C414.014 224.076 415.38 227.872 416.83 232.272C421.432 246.232 425.194 254.985 430.668 264.466C434.501 271.108 437.868 277.934 437.436 278.188C437.234 278.308 435.526 276.74 433.641 274.707Z"/><path fill="#FDEDD0" stroke="#FDEDD0" d="M388.658 201.647C384.717 196.853 377.06 189.758 372.822 186.974L371.608 186.176L373.445 182.158C374.456 179.948 375.724 176.542 376.266 174.588C376.808 172.634 377.386 170.816 377.552 170.549C378.366 169.23 398.167 177.977 408.568 184.25C416.055 188.764 425.307 195.082 425.314 195.682C425.319 196.192 422.365 200.522 422.011 200.522C421.048 200.522 419.848 199.298 419.57 198.031C419.032 195.583 411.444 189.67 407.767 188.836C406.615 188.574 406.331 188.803 405.284 190.838C404.634 192.102 403.813 193.247 403.46 193.382C403.107 193.518 402.818 193.927 402.818 194.292C402.818 194.656 402.126 195.447 401.279 196.05C400.432 196.652 399.589 197.535 399.404 198.01C399.219 198.486 397.662 200.041 395.943 201.466C394.224 202.892 392.818 204.275 392.818 204.54C392.818 205.844 391.16 204.691 388.658 201.647Z"/><path fill="#F58948" stroke="#F58948" d="M205.786 135.2C202.964 132.226 196.453 127.616 192.097 125.508C183.746 121.466 174.908 120.474 165.594 122.533C163.132 123.077 161.051 123.522 160.968 123.522C160.542 123.522 160.913 116.748 161.595 112.086C163.412 99.659 166.824 89.007 173.068 76.272C178.968 64.242 183.45 58.25 191.705 51.367C211.41 34.934 243.146 24.282 280.699 21.495C291.32 20.707 321.954 21.14 331.318 22.21C340.19 23.225 350.894 24.83 356.896 26.044C359.552 26.582 362.408 27.022 366.25 28.022C367.725 28.022 377.117 31.878 382.228 34.582C391.286 39.375 392.436 40.104 391.858 40.682C390.845 41.695 391.318 42.64 394.753 46.456C398.56 50.686 400.716 54.608 404.972 65.052C411.889 82.022 415.818 99.88 415.818 114.342C415.818 120.139 415.091 122.722 413.582 122.29C413.024 122.13 410.318 121.867 407.568 121.705C398.148 121.15 391.206 123.424 379.442 130.921C373.653 134.61 370.215 136.522 369.371 136.522C369.103 136.522 366.478 134.722 363.537 132.522C360.596 130.322 357.85 128.522 357.434 128.522C356.168 128.522 351.814 125.584 349.373 123.084C346.09 119.72 341.792 116.951 333.788 113.042C304.603 98.79 273.347 98.404 246.068 111.962C238.298 115.824 231.24 120.308 227.818 123.557C225.715 125.554 224.78 126.182 220.338 128.586C219.386 129.1 218.81 129.522 219.058 129.522C219.876 129.522 217.586 130.99 216.742 131.006C216.288 131.015 214.57 132.034 212.924 133.272C211.278 134.51 209.754 135.522 209.539 135.522C209.324 135.522 208.776 135.857 208.324 136.266C207.586 136.934 207.329 136.827 205.786 135.2ZM226.948 118.118C234.947 114.18 239.318 107.181 239.318 98.31C239.318 89.73 235.038 82.424 227.84 78.715C224.109 76.793 217.492 76.45 213.202 77.956C204.435 81.034 198.818 89.358 198.818 99.271C198.818 100.773 199.382 103.753 200.088 105.988C201.134 109.3 201.83 110.518 204.048 112.914C210.33 119.7 219.502 121.784 226.948 118.118ZM366.581 118.978C374.793 117.46 381.21 110.698 382.848 101.84C383.542 98.086 382.759 92.748 380.968 89.022C379.104 85.146 374.203 80.442 370.496 78.972C366.567 77.414 359.329 77.304 355.448 78.744C347.152 81.822 341.917 90.272 342.416 99.78C342.603 103.339 342.91 104.516 344.484 107.702C347.951 114.716 354.558 119.005 362.601 119.463C363.17 119.496 364.96 119.277 366.581 118.978ZM242.762 62.742C245.9 60.102 245.05 56.072 240.51 52.076C236.592 48.628 232.43 46.874 227.548 46.618C222.582 46.358 221.39 46.605 219.356 48.316C217.506 49.874 217.284 52.39 218.782 54.847C221.278 58.942 232.114 63.86 238.904 63.98C240.72 64.013 241.58 63.737 242.762 62.742ZM347.04 63.259C351.63 62.063 357.936 58.739 360.77 56.021C362.846 54.03 363.318 53.266 363.318 51.894C363.318 50.054 361.701 48.192 359.17 47.116C357.308 46.325 351.04 46.398 348.685 47.238C343.677 49.025 336.875 54.57 335.838 57.71C334.208 62.651 339.433 65.24 347.04 63.259Z"/><path fill="#260B1A" stroke="#260B1A" d="M280.479 229.526C274.224 227.886 267.936 224.237 264.155 220.052C262.276 217.972 260.578 215.096 260.988 214.686C261.122 214.552 262.882 215.234 264.9 216.2C270.174 218.727 275.59 220.429 281.387 221.38C290.142 222.818 300.827 221.136 311.22 216.687C313.504 215.71 315.51 215.048 315.679 215.216C316.26 215.797 314.564 218.264 311.492 221.31C303.798 228.938 291.085 232.306 280.479 229.526Z"/><path fill="#260B1A" stroke="#260B1A" d="M214.37 119.26C210.254 118.108 207.011 116.114 204.048 112.914C198.442 106.858 197.23 96.714 201.164 88.772C203.784 83.484 207.842 79.838 213.202 77.956C215.474 77.158 217.005 76.987 220.59 77.13C225.945 77.342 229.078 78.686 232.984 82.446C241.765 90.898 241.349 106.926 232.144 114.806C226.961 119.242 220.283 120.916 214.37 119.26ZM227.377 97.081C229.138 95.32 229.318 94.896 229.318 92.522C229.318 90.148 229.138 89.724 227.377 87.963C225.678 86.264 225.146 86.022 223.108 86.022C221.106 86.022 220.499 86.285 218.782 87.897C214.153 92.241 216.876 99.014 223.252 99.02C225.124 99.022 225.714 98.744 227.377 97.081Z"/><path fill="#FDEDD0" stroke="#FDEDD0" d="M165.774 178.381C164.744 177.59 163.818 175.832 163.818 174.666C163.818 174.159 163.005 172.062 162.012 170.008C159.526 164.87 159.23 163.68 159.89 161.481C160.438 159.65 160.52 159.602 166.506 157.605C173.724 155.198 176.51 154.428 182.818 153.098C189.628 151.662 200.362 150.366 200.91 150.914C201.182 151.186 200.953 152.847 200.336 155.07C199.77 157.106 199.166 160.273 198.994 162.108L198.682 165.444L194.125 167.028C188.914 168.838 178.944 173.496 173.246 176.784C169.324 179.045 167.224 179.494 165.774 178.381Z"/><path fill="#FDEDD0" stroke="#FDEDD0" d="M160.172 152.014C158.698 150.854 158.09 149.182 157.36 144.272C157.074 142.347 156.384 139.484 155.828 137.91C155.272 136.335 154.817 134.535 154.816 133.91C154.815 133.284 154.407 132.097 153.91 131.272C152.146 128.348 152.181 128.142 154.712 126.68C156.008 125.932 157.208 125.116 157.381 124.866C157.554 124.617 159.916 123.852 162.631 123.166C169.266 121.49 177.836 121.09 182.898 122.222C190.27 123.868 198.398 128.324 204.586 134.112C207.258 136.612 207.783 136.916 208.318 136.272C208.66 135.86 209.163 135.522 209.436 135.522C209.708 135.522 211.278 134.51 212.924 133.272C217.2 130.058 217.964 130.49 214.088 133.932C210.706 136.933 207.588 140.464 205.198 143.996L203.828 146.022H199.598C191.597 146.022 175.88 148.714 166.068 151.764C161.245 153.263 161.732 153.242 160.172 152.014Z"/><path fill="#FCDCB4" stroke="#FCDCB4" d="M371.535 256.576C371.723 256.271 371.646 256.022 371.363 256.022C371.08 256.022 370.085 254.828 369.152 253.369C364.426 245.982 352.532 239.953 340.818 239.008C328.549 238.017 327.494 237.806 328.948 236.638C329.29 236.364 335.193 234.308 342.068 232.068C354.559 228 359.452 226.169 364.194 223.788C365.58 223.092 366.909 222.522 367.148 222.522C367.388 222.522 369.156 221.596 371.076 220.464C374.645 218.362 380.366 216.022 381.941 216.022C382.51 216.022 382.818 216.406 382.818 217.117C382.818 217.719 383.079 219.474 383.398 221.016C384.401 225.875 384.3 225.996 375.688 230.269C371.496 232.348 367.674 234.518 367.193 235.091C366.172 236.306 366.048 238.185 366.943 238.896C367.702 239.5 371.746 239.028 378.294 237.572C380.894 236.994 383.75 236.522 384.64 236.522C385.53 236.522 386.424 236.254 386.626 235.928C386.828 235.601 387.724 238.168 388.618 241.636C389.512 245.102 390.78 249.262 391.434 250.882L392.622 253.825L385.595 254.41C379.354 254.928 376.497 255.434 372.38 256.75C371.562 257.011 371.299 256.957 371.535 256.576Z"/><path fill="#FDEDD0" stroke="#FDEDD0" d="M239.818 194.061C235.889 193.506 231.59 192.172 228.094 190.42C224.184 188.462 218.818 184.652 218.818 183.836C218.818 183.246 220.944 181.94 229.331 177.374C231.126 176.398 233.023 175.124 233.548 174.544C234.42 173.58 234.434 173.423 233.704 172.693C232.974 171.963 232.545 172.026 228.64 173.44C226.293 174.288 222.566 175.892 220.356 177.002C218.148 178.113 216 179.022 215.586 179.022C215.172 179.022 214.285 178.178 213.616 177.147C211.906 174.51 209.548 167.592 210.152 166.988C210.417 166.723 213.747 165.599 217.552 164.49C221.358 163.382 224.894 162.25 225.409 161.974C227.989 160.593 223.561 160.082 217.318 161.041C215.53 161.316 212.999 161.68 211.693 161.851L209.318 162.162V159.856C209.318 158.588 209.69 155.856 210.145 153.786L210.972 150.022L219.77 150.014C228.435 150.007 230.658 149.662 229.499 148.504C228.728 147.732 226.066 147.209 219.318 146.502C216.156 146.172 213.382 145.73 213.154 145.522C211.69 144.184 223.786 126.848 229.479 122.124C236.085 116.643 249.932 109.418 259.818 106.295C274.451 101.672 292.232 100.854 308.057 104.078C316.056 105.708 326.338 109.361 334.8 113.582C343.742 118.042 349.092 121.856 350.568 124.82C351.118 125.926 353.008 128.492 354.767 130.524C359.496 135.986 365.015 144.992 364.159 145.848C364.026 145.981 361.588 146.304 358.742 146.566C353.431 147.056 347.897 147.914 347.176 148.36C346.952 148.498 347.033 148.928 347.355 149.316C347.819 149.876 349.791 150.022 356.856 150.022H365.771L366.305 151.897C367.137 154.819 367.544 161.322 366.92 161.708C366.626 161.89 364.514 161.72 362.227 161.329C354.048 159.932 351.863 159.824 351.49 160.796C351.012 162.042 352.238 162.761 356.976 164.006C366.396 166.482 366.318 166.45 366.318 167.767C366.318 170.25 362.546 178.522 361.415 178.522C361.2 178.522 357.793 177.154 353.842 175.48C346.058 172.184 344.501 171.822 343.66 173.118C342.873 174.328 344.157 175.568 347.684 177.006C351.722 178.65 358.186 181.902 358.532 182.464C358.947 183.134 354.641 186.786 350.768 189.05C348.952 190.111 345.69 191.608 343.518 192.376C339.901 193.654 338.978 193.77 332.568 193.756C327.388 193.744 324.788 193.51 322.568 192.858C313.338 190.144 305.358 185.581 300.032 179.97C295.951 175.671 294.27 172.021 293.94 166.744C293.647 162.04 293.348 162.416 298.919 160.487C308.468 157.18 319.987 148.203 325.378 139.867C331.048 131.098 330.335 124.394 323.002 117.534C315.588 110.598 303.692 107.584 286.086 108.18C276.795 108.494 270.596 109.522 264.318 111.79C256.17 114.734 252.29 117.484 249.795 122.086C248.195 125.038 248.071 125.585 248.109 129.522C248.14 132.762 248.412 134.357 249.254 136.234C253.432 145.558 263.922 155.324 273.486 158.796C275.207 159.42 278.031 160.21 279.76 160.55C281.545 160.902 283.024 161.476 283.178 161.88C283.328 162.27 283.208 164.728 282.912 167.342C282.51 170.87 282.038 172.662 281.075 174.305C273.643 186.987 254.534 196.137 239.818 194.061Z"/><path fill="#823746" stroke="#823746" d="M154.318 84.579C148.01 82.54 143.314 78.759 141.05 73.898C138.652 68.748 139.77 61.632 143.772 56.58C146.158 53.569 151.54 51.022 155.51 51.025C159.578 51.028 161.574 51.642 165.244 54.014C168.434 56.075 172.818 59.8559 172.818 60.5459C172.818 60.7629 171.618 62.366 170.152 64.107C166.804 68.082 163.624 73.248 160.279 80.147C158.846 83.103 157.537 85.51 157.37 85.495C157.204 85.48 155.83 85.068 154.318 84.579Z"/><path fill="#E8683A" stroke="#E8683A" d="M431.068 131.205C426.356 127.384 422.092 124.886 417.822 123.444C415.051 122.509 414.772 122.292 415.11 121.336C415.792 119.406 415.912 110.866 415.334 105.272C413.968 92.0349 410.53 78.688 404.972 65.052C400.716 54.608 398.56 50.686 394.753 46.456C391.295 42.614 390.842 41.6979 391.887 40.6529C392.312 40.2279 393.418 40.728 396.262 42.632C398.356 44.034 400.888 45.82 401.89 46.602C402.892 47.383 404.042 48.022 404.446 48.022C404.85 48.022 406.617 47.374 408.374 46.58C422.416 40.243 436.967 41.591 445.385 50.009C450.168 54.792 452.325 60.316 452.308 67.738C452.291 74.945 449.544 81.382 444.503 86.028C441.684 88.628 438.254 90.197 432.943 91.32C430.674 91.8 428.818 92.3649 428.818 92.5759C428.818 92.7859 429.38 95.278 430.066 98.114C430.753 100.95 431.876 107.546 432.563 112.771C434.452 127.15 434.903 130.081 435.59 132.397C436.056 133.967 436.07 134.512 435.644 134.485C435.327 134.464 433.268 132.988 431.068 131.205ZM431.499 83.005C437.194 80.874 441.682 76.0399 442.863 70.7659C445.202 60.3119 437.18 50.4819 426.352 50.5319C421.981 50.5519 415.858 53.383 411.046 57.608L409.367 59.082L412.326 63.074C415.43 67.26 419.428 74.08 422.654 80.694L424.568 84.617L426.623 84.338C427.754 84.186 429.948 83.586 431.499 83.005Z"/><path fill="#FFCEA6" stroke="#FFCEA6" d="M150.019 123.658C150.563 114.196 151.279 107.862 152.59 100.904C153.266 97.32 153.818 94.11 153.818 93.768C153.818 93.428 152.024 92.433 149.832 91.558C147.64 90.683 144.88 89.427 143.698 88.766C136.152 84.549 131.308 76.358 131.326 67.844C131.353 54.667 139.201 44.906 151.948 42.196C158.691 40.764 165.069 41.88 173.147 45.908L177.726 48.191L183.147 44.67C205.472 30.168 231.322 20.573 258.889 16.557C289.382 12.114 329.226 15.116 355.55 23.839C360.738 25.558 363.88 27.022 362.383 27.022C362.021 27.022 359.552 26.582 356.896 26.044C350.894 24.83 340.19 23.225 331.318 22.21C321.954 21.14 291.32 20.707 280.699 21.495C243.146 24.282 211.41 34.934 191.705 51.367C183.448 58.253 178.964 64.246 173.072 76.272C165.66 91.402 161.85 104.696 160.903 118.738C160.576 123.585 160.536 123.711 159.228 124.06C158.492 124.256 157.592 124.665 157.228 124.969C156.074 125.935 151.488 128.85 150.568 129.203C149.738 129.521 149.702 129.162 150.019 123.658ZM160.279 80.147C163.624 73.248 166.804 68.082 170.152 64.107C171.618 62.366 172.818 60.763 172.818 60.546C172.818 59.856 168.434 56.075 165.244 54.014C161.574 51.642 159.578 51.028 155.51 51.025C151.54 51.022 146.158 53.569 143.772 56.58C139.77 61.632 138.652 68.748 141.05 73.898C142.502 77.018 146.316 80.987 149.374 82.56C151.232 83.518 156.382 85.407 157.37 85.495C157.537 85.51 158.846 83.103 160.279 80.147Z"/><path fill="#FDEDD0" stroke="#FDEDD0" d="M425.954 188.622C424.516 187.604 423.393 186.442 423.458 186.04C423.522 185.638 424.422 185.108 425.458 184.862C426.854 184.532 427.71 183.88 428.76 182.344C431.126 178.884 431.686 177.422 432.049 173.76C432.476 169.446 432.618 169.601 424.746 165.761C420.711 163.792 418.605 163.022 417.884 163.251C417.104 163.498 416.587 164.488 415.827 167.177C415.268 169.154 414.363 171.604 413.815 172.621C413.267 173.638 412.818 175.039 412.818 175.734C412.818 176.518 412.361 177.299 411.615 177.788C410.461 178.544 410.13 178.434 403.49 175.11C395.566 171.143 389.898 168.746 383.818 166.793C376.778 164.531 377.32 164.979 377.3 161.408C377.29 159.683 376.972 156.697 376.594 154.772C376.181 152.666 376.088 151.083 376.362 150.798C377.468 149.644 395.319 152.344 406.318 155.328C411.304 156.681 422.142 160.562 426.818 162.67C438.928 168.127 438.148 167.384 436.63 172.028C434.142 179.64 429.559 190.553 428.874 190.497C428.706 190.484 427.392 189.64 425.954 188.622Z"/><path fill="#FDEDD0" stroke="#FDEDD0" d="M193.193 259.736C192.436 259.326 191.818 258.866 191.818 258.715C191.818 258.564 192.578 257.502 193.508 256.356C195.915 253.386 196.932 251.154 199.308 243.617C201.378 237.046 201.422 236.966 202.736 237.24C204.999 237.713 211.002 238.502 212.318 238.5C213.11 238.498 210.638 236.982 205.568 234.36C201.168 232.084 194.756 228.524 191.318 226.449C185.158 222.731 185.039 222.625 183.068 219.073C181.968 217.091 179.99 214.249 178.672 212.758C175.91 209.632 175.264 208.236 174.094 202.888C173.471 200.034 172.775 198.388 171.472 196.68C169.153 193.642 168.318 191.559 168.318 188.814C168.318 186.87 168.533 186.411 169.943 185.351C175.276 181.341 195.732 171.284 197.883 171.615C198.684 171.738 199.201 172.689 200.278 176.022C201.684 180.376 203.412 184.175 204.608 185.542C205.192 186.208 204.908 186.61 202.486 188.542C199.112 191.233 190.415 200.242 187.358 204.214C185.43 206.718 185.208 207.256 185.616 208.42C185.88 209.17 186.67 209.959 187.418 210.222C188.68 210.666 189.22 210.212 197.659 201.6C205.936 193.155 206.695 192.51 208.356 192.516C209.608 192.52 210.494 192.894 211.312 193.766C212.738 195.282 218.82 199.511 221.604 200.92C232.904 206.642 252.962 206.988 265.142 201.673C267.706 200.554 267.833 200.558 269.568 201.82C274.74 205.583 281.081 207.522 288.212 207.522C294.34 207.522 298.062 206.488 304.925 202.876L309.782 200.32L311.675 201.233C318.474 204.514 325.595 205.78 335.016 205.381C342.671 205.057 347.432 203.954 353.546 201.088C358.592 198.724 361.314 196.899 365.307 193.202L368.316 190.416L371.692 193.42C375.184 196.528 381.302 202.778 385.445 207.472C387.282 209.552 387.696 210.316 387.268 210.833C386.851 211.334 386.464 211.368 385.712 210.965C384.89 210.525 384.296 210.72 382.39 212.058C379.936 213.778 377.318 216.318 377.318 216.977C377.318 217.194 376.474 217.738 375.443 218.188C374.412 218.637 371.993 219.854 370.068 220.892C362.514 224.966 357.281 227.056 342.568 231.878C335.418 234.22 329.29 236.362 328.948 236.636C327.496 237.807 328.548 238.017 340.818 239.008C352.532 239.953 364.426 245.982 369.152 253.369C370.085 254.828 371.112 256.022 371.434 256.022C372.796 256.022 370.65 257.263 366.539 258.852L362.221 260.522L278.394 260.502C205.058 260.484 194.396 260.388 193.193 259.736ZM296.506 229.538C302.048 228.12 307.818 224.952 311.492 221.31C314.564 218.264 316.26 215.797 315.679 215.216C315.51 215.048 313.504 215.71 311.22 216.687C304.966 219.365 298.786 220.977 292.292 221.626C287.28 222.128 285.726 222.092 281.387 221.38C275.59 220.429 270.174 218.727 264.9 216.2C262.882 215.234 261.122 214.552 260.988 214.686C260.578 215.096 262.276 217.972 264.155 220.052C271.762 228.472 285.232 232.421 296.506 229.538Z"/><path fill="#FCFAF6" stroke="#FCFAF6" d="M180.068 218.886C172.564 213.216 159.202 198.708 157.572 194.461C157.36 193.91 158.782 192.68 162.674 190.042L168.068 186.385L168.357 189.328C168.674 192.564 169.118 193.596 171.574 196.814C172.71 198.302 173.484 200.124 174.042 202.627C175.35 208.485 175.764 209.397 178.6 212.649C181.009 215.411 184.686 221.344 184.241 221.75C184.146 221.836 182.268 220.548 180.068 218.886Z"/><path fill="#FDEDD0" stroke="#FDEDD0" d="M233.722 63.248C230.18 62.39 225.111 60.116 222.062 58.018C217.628 54.966 216.454 50.759 219.356 48.316C221.39 46.605 222.582 46.358 227.548 46.618C232.43 46.874 236.592 48.628 240.51 52.076C245.05 56.072 245.9 60.102 242.762 62.742C240.995 64.229 238.372 64.376 233.722 63.248Z"/><path fill="#FDEDD0" stroke="#FDEDD0" d="M410.881 150.986C401.753 148.173 390.717 146.368 378.794 145.74L373.02 145.436L371.846 143.22C370.366 140.432 365.825 135.456 362.082 132.522C357.249 128.734 357.05 128.556 357.63 128.538C357.938 128.53 360.596 130.322 363.537 132.522C366.478 134.722 369.103 136.522 369.371 136.522C370.215 136.522 373.653 134.61 379.442 130.921C392.452 122.63 400.89 120.316 411.818 122.043C416.366 122.762 418.408 123.476 417.954 124.188C417.748 124.509 417.646 129.384 417.726 135.022C417.806 140.66 417.652 146.396 417.386 147.77C417.066 149.422 417.071 150.474 417.402 150.874C418.048 151.651 417.502 152.535 416.414 152.476C415.948 152.452 413.459 151.781 410.881 150.986Z"/><path fill="#FDE1BC" stroke="#FDE1BC" d="M366.918 238.922C366.054 238.058 366.18 236.297 367.193 235.091C367.674 234.518 371.496 232.348 375.688 230.269C384.3 225.996 384.401 225.875 383.398 221.016C383.079 219.474 382.818 217.719 382.818 217.117C382.818 215.858 381.951 215.728 379.491 216.618C378.584 216.946 377.714 217.084 377.556 216.926C377.142 216.513 379.68 213.958 382.39 212.058C384.338 210.691 384.878 210.519 389.111 209.522C390.682 209.522 392.002 207.822 392.818 204.54C392.818 204.275 394.224 202.892 395.943 201.466C397.662 200.041 399.219 198.486 399.404 198.01C399.589 197.535 400.432 196.652 401.279 196.05C402.126 195.447 402.818 194.656 402.818 194.292C402.818 193.927 403.107 193.518 403.46 193.382C403.813 193.247 404.634 192.102 405.284 190.838C406.331 188.803 406.615 188.574 407.767 188.836C411.444 189.67 419.032 195.583 419.57 198.031C419.751 198.856 420.338 199.765 420.874 200.052C421.838 200.568 421.838 200.589 420.883 201.931C418.906 204.706 410.927 212.816 406.737 216.308C398.605 223.084 388.775 228.934 375.649 234.805C372.118 236.384 368.971 238.092 368.654 238.599C367.978 239.682 367.726 239.729 366.918 238.922Z"/><path fill="#FCFAF6" stroke="#FCFAF6" d="M151.494 184.196C149.096 179.064 146 170.251 145.73 167.79C145.572 166.34 145.714 166.24 152.318 163.182C159.896 159.672 160.572 159.492 159.989 161.147C159.27 163.186 159.705 165.218 161.774 169.496C162.898 171.818 163.818 174.14 163.818 174.654C163.818 176.788 165.418 178.537 167.818 179.028C169.03 179.276 169.006 179.321 167.068 180.507C165.968 181.18 162.754 183.372 159.926 185.376C157.098 187.382 154.552 189.022 154.267 189.022C153.982 189.022 152.735 186.85 151.494 184.196Z"/><path fill="#FCFAF6" stroke="#FCFAF6" d="M144.934 150.897C145.137 143.28 145.32 141.796 146.497 138.198C148.602 131.762 149.734 129.529 151.172 128.982C151.878 128.714 152.486 128.556 152.523 128.633C152.56 128.71 153.09 129.702 153.704 130.84C154.316 131.978 154.818 133.39 154.818 133.978C154.818 134.566 155.272 136.335 155.828 137.91C156.384 139.484 157.074 142.347 157.36 144.272C158.092 149.188 158.698 150.854 160.18 152.021C160.89 152.579 161.38 153.115 161.27 153.212C161.159 153.308 159.83 153.786 158.318 154.274C156.806 154.762 153.324 156.142 150.582 157.341C147.84 158.54 145.396 159.522 145.15 159.522C144.898 159.522 144.804 155.788 144.934 150.897Z"/><path fill="#260B1A" stroke="#260B1A" d="M359.208 119.007C353.026 117.966 347.436 113.674 344.484 107.702C342.91 104.516 342.603 103.339 342.416 99.78C341.917 90.272 347.152 81.822 355.448 78.744C359.329 77.304 366.567 77.414 370.496 78.972C374.203 80.442 379.104 85.146 380.968 89.022C386.926 101.416 379.653 116.561 366.581 118.978C363.316 119.581 362.631 119.584 359.208 119.007ZM361.298 98.282C363.603 97.09 364.818 95.166 364.818 92.706C364.818 90.905 364.505 90.178 363.022 88.538C360.176 85.388 357.302 85.249 354.05 88.104C351.786 90.093 351.394 92.232 352.794 94.976C354.614 98.542 358.143 99.914 361.298 98.282Z"/><path fill="#FDEDD0" stroke="#FDEDD0" d="M337.93 63.02C335.822 61.735 335.108 59.922 335.838 57.71C336.875 54.57 343.677 49.025 348.685 47.238C351.04 46.398 357.308 46.325 359.17 47.116C361.701 48.192 363.318 50.054 363.318 51.894C363.318 56.464 349.922 64.026 341.838 64.02C340.452 64.019 338.93 63.63 337.93 63.02Z"/><path fill="#FCFAF6" stroke="#FCFAF6" d="M219.413 98.009C215.733 95.766 215.438 91.036 218.782 87.897C220.499 86.285 221.106 86.022 223.108 86.022C225.146 86.022 225.678 86.264 227.377 87.963C229.138 89.724 229.318 90.148 229.318 92.522C229.318 94.896 229.138 95.32 227.377 97.081C225.714 98.744 225.124 99.022 223.252 99.02C221.944 99.019 220.404 98.613 219.413 98.009Z"/><path fill="#FDE1BC" stroke="#FDE1BC" d="M417.568 183C414.543 181.114 411.73 179.354 411.318 179.088C410.68 178.676 410.736 178.482 411.693 177.784C412.34 177.313 412.818 176.435 412.818 175.718C412.818 175.032 413.267 173.638 413.815 172.621C414.363 171.604 415.268 169.154 415.827 167.177C416.587 164.488 417.104 163.498 417.884 163.251C418.605 163.022 420.711 163.792 424.746 165.761C432.618 169.601 432.476 169.446 432.049 173.76C431.686 177.43 431.128 178.882 428.738 182.376C427.66 183.952 426.86 184.562 425.552 184.808C424.59 184.988 423.638 185.426 423.436 185.782C423.166 186.256 421.606 185.516 417.568 183Z"/><path fill="#823746" stroke="#823746" d="M422.654 80.694C419.428 74.08 415.43 67.26 412.326 63.074L409.367 59.082L411.046 57.608C415.858 53.383 421.981 50.552 426.352 50.532C437.18 50.482 445.202 60.312 442.863 70.766C441.35 77.523 434.468 83.276 426.623 84.338L424.568 84.617L422.654 80.694Z"/><path fill="#FCDCB4" stroke="#FCDCB4" d="M430.818 158.225C426.83 156.464 422.056 154.531 420.209 153.93C417.554 153.065 416.964 152.698 417.396 152.179C417.774 151.723 417.782 151.33 417.42 150.896C417.069 150.472 417.058 149.46 417.386 147.77C417.652 146.396 417.803 140.614 417.72 134.922C417.618 128.031 417.747 124.393 418.104 124.036C418.945 123.194 425.195 126.585 430.618 130.824C433.22 132.858 435.56 134.522 435.82 134.522C436.392 134.522 437.567 138.535 438.382 143.272C439.13 147.619 439.269 161.13 438.568 161.302C438.293 161.37 434.806 159.986 430.818 158.225Z"/><path fill="#FFFFFE" stroke="#FFFFFE" d="M355.463 98.04C353.304 96.723 351.634 93.408 352.04 91.245C352.364 89.518 354.902 86.88 356.828 86.268C358.851 85.626 361.155 86.47 363.022 88.538C364.505 90.178 364.818 90.905 364.818 92.706C364.818 97.553 359.571 100.544 355.463 98.04Z"/></g><defs><filter id="filter0_d_18_63" width="549.847" height="612.31" x="-3.123" y=".601" color-interpolation-filters="sRGB" filterUnits="userSpaceOnUse"><feFlood flood-opacity="0" result="BackgroundImageFix"/><feColorMatrix in="SourceAlpha" result="hardAlpha" type="matrix" values="0 0 0 0 0 0 0 0 0 0 0 0 0 0 0 0 0 0 127 0"/><feOffset dy="4"/><feGaussianBlur stdDeviation="2"/><feComposite in2="hardAlpha" operator="out"/><feColorMatrix type="matrix" values="0 0 0 0 0 0 0 0 0 0 0 0 0 0 0 0 0 0 0.25 0"/><feBlend in2="BackgroundImageFix" mode="normal" result="effect1_dropShadow_18_63"/><feBlend in="SourceGraphic" in2="effect1_dropShadow_18_63" mode="normal" result="shape"/></filter><clipPath id="clip0_18_63"><rect width="543" height="605" fill="#fff"/></clipPath></defs></svg>